<svg width="1440" height="298" viewBox="0 0 1440 298" fill="none" xmlns="http://www.w3.org/2000/svg">
<g clip-path="url(#clip0_9575_36360)">
<g clip-path="url(#clip1_9575_36360)">
<g clip-path="url(#clip2_9575_36360)">
<path d="M1655.28 2.16997L1640.25 0M1655.28 2.16997H1610.75M1655.28 2.16997L1670.81 4.41119M1655.28 2.16997H1686.82M1640.25 0H1645.72L1651.14 0.00537786L1656.43 0.0188225L1661.57 0.0457118L1666.48 0.0860458L1671.12 0.15058L1675.42 0.239315L1679.41 0.350906L1682.84 0.506864L1685.96 0.687022L1686.82 0.750212V2.16997M1640.25 0H1596.43M1610.75 2.16997L1596.43 0M1610.75 2.16997H1566.21M1610.75 2.16997L1614.39 2.72389L1625.54 4.41119M1670.81 4.41119H1625.54M1670.81 4.41119L1686.82 6.72367M1670.81 4.41119H1686.82M1686.82 2.16997V4.41119M1596.43 0H1552.61M1552.61 0H1508.79M1552.61 0L1566.21 2.16997M1508.79 0H1464.97M1508.79 0L1521.67 2.16997M1566.21 2.16997H1521.67M1566.21 2.16997L1580.26 4.41119M1464.97 0H1421.14M1464.97 0L1477.14 2.16997M1521.67 2.16997H1477.14M1521.67 2.16997L1534.98 4.41119M1421.14 0H1377.32M1421.14 0L1432.59 2.16997M1477.14 2.16997H1432.59M1477.14 2.16997L1489.71 4.41119M1377.32 0H1333.51M1377.32 0L1388.05 2.16997M1432.59 2.16997H1388.05M1432.59 2.16997L1435.51 2.72254L1436.99 3.00085L1444.43 4.40985M1333.51 0H1289.68M1333.51 0L1343.52 2.16997M1388.05 2.16997H1343.52M1388.05 2.16997L1390.79 2.72254L1399.14 4.41119M1289.68 0H1245.86M1289.68 0L1298.98 2.16997M1343.52 2.16997H1298.98M1343.52 2.16997L1353.88 4.41119M1245.86 0H1202.03M1245.86 0L1254.45 2.16997M1298.98 2.16997H1254.45M1298.98 2.16997L1301.36 2.72389L1302.56 3.00219L1308.59 4.41119M1202.03 0H1158.22M1202.03 0L1209.91 2.16997M1254.45 2.16997H1209.91M1254.45 2.16997L1263.33 4.40985M1158.22 0H1114.4M1158.22 0L1165.37 2.16997M1209.91 2.16997H1165.37M1209.91 2.16997L1211.91 2.72254L1212.94 3.00085L1218.04 4.40985M1114.4 0H1070.57M1114.4 0L1115.99 0.536442L1118.39 1.34715L1120.84 2.16997M1165.37 2.16997H1120.84M1165.37 2.16997L1166.28 2.44558L1167.2 2.72389L1172.76 4.41119M1070.57 0H1026.75M1070.57 0L1071.99 0.536442L1076.3 2.16997M1120.84 2.16997H1076.3M1120.84 2.16997L1122.48 2.72389L1123.3 3.00219L1127.49 4.41119M1026.75 0H982.93M1026.75 0L1031.76 2.16997M1076.3 2.16997H1031.76M1076.3 2.16997L1082.21 4.40985M982.93 0H939.108M982.93 0L984.523 0.80668L986.138 1.62008L986.679 1.89435L987.224 2.16997M1031.76 2.16997H987.224M1031.76 2.16997L1032.4 2.44424L1033.04 2.72254L1033.68 3.00085L1036.94 4.41119M939.108 0H895.287M939.108 0L940.436 0.80668L940.883 1.07557L941.332 1.34715L942.687 2.16997M987.224 2.16997H942.687M987.224 2.16997L988.32 2.72389L988.871 3.00219L989.423 3.28184L991.661 4.41119M895.287 0H851.465M895.287 0L898.149 2.16997M942.687 2.16997H898.149M942.687 2.16997L943.6 2.72389L945.449 3.84383L945.915 4.12617L946.384 4.41119M851.465 0L851.73 0.267549L851.995 0.536442L853.339 1.89435L853.612 2.16997M851.465 0H807.644M898.149 2.16997H853.612M898.149 2.16997L898.515 2.44424L898.88 2.72254L899.247 3.00085L901.107 4.41119M853.612 2.16997H809.075M853.612 2.16997L855.831 4.41119M807.644 0H763.822M807.644 0L809.075 2.16997M763.822 0H720M763.822 0L764.088 0.80668L764.537 2.16997M809.075 2.16997H764.537M809.075 2.16997L809.257 2.44558L809.44 2.72389L809.624 3.00219L810.553 4.41119M720 0H676.179M720 0V2.16997M764.537 2.16997H720M764.537 2.16997L765.277 4.41119M676.179 0H632.357M676.179 0L675.913 0.80668L675.464 2.16997M720 2.16997H675.464M720 2.16997V4.40985M632.357 0H588.536M632.357 0L630.926 2.16997M675.464 2.16997H630.926M675.464 2.16997L674.724 4.41119M588.536 0L588.271 0.267549L588.006 0.536442L586.662 1.89435L586.389 2.16997M588.536 0H544.714M630.926 2.16997H586.389M630.926 2.16997L630.744 2.44558L630.561 2.72389L630.377 3.00219L629.822 3.84383L629.448 4.41119M586.389 2.16997H541.852M586.389 2.16997L584.17 4.41119M544.714 0H500.893M544.714 0L542.215 1.8957L541.852 2.16997M500.893 0H457.071M500.893 0L499.565 0.80668L499.118 1.07557L498.22 1.62008L497.768 1.89435L497.314 2.16997M541.852 2.16997H497.314M541.852 2.16997L541.486 2.44424L541.121 2.72254L540.754 3.00085L538.894 4.40985M457.071 0H413.25M457.071 0L455.478 0.80668L453.863 1.62008L453.322 1.89435L452.777 2.16997M497.314 2.16997H452.777M497.314 2.16997L496.401 2.72254L494.552 3.84248L493.617 4.41119M413.25 0H369.428M413.25 0L408.24 2.16997M452.777 2.16997H408.24M452.777 2.16997L451.683 2.72389L451.13 3.00219L450.578 3.28184L448.34 4.41119M369.428 0H325.607M369.428 0L368.015 0.536442L363.704 2.16997M408.24 2.16997L407.602 2.44558L403.064 4.41119M408.24 2.16997H363.704M325.607 0H281.785M325.607 0L319.165 2.16997M363.704 2.16997H319.165M363.704 2.16997L362.974 2.44424L357.788 4.40985M281.785 0H237.964M281.785 0L274.629 2.16997M319.165 2.16997H274.629M319.165 2.16997L317.522 2.72254L316.696 3.00085L312.51 4.41119M237.964 0H194.142M237.964 0L230.092 2.16997M274.629 2.16997H230.092M274.629 2.16997L273.717 2.44558L272.803 2.72389L267.234 4.41119M194.142 0H150.321M194.142 0L185.554 2.16997M230.092 2.16997H185.554M230.092 2.16997L228.083 2.72389L227.072 3.00219L221.957 4.41119M150.321 0H106.499M150.321 0L141.017 2.16997M185.554 2.16997H141.017M185.554 2.16997L184.461 2.44424L176.68 4.41119M106.499 0H62.6776M106.499 0L96.4789 2.16997M141.017 2.16997H96.4789M141.017 2.16997L138.643 2.72254L137.449 3.00085L131.404 4.41119M62.6776 0H18.8561M62.6776 0L51.9421 2.16997M96.4789 2.16997H51.9421M96.4789 2.16997L86.1278 4.41119M18.8561 0H-24.9654M18.8561 0L7.4053 2.16997M51.9421 2.16997H7.4053M51.9421 2.16997L49.2034 2.72389L40.8516 4.41119M-24.9654 0H-68.7869M-24.9654 0L-37.1328 2.16997M7.4053 2.16997H-37.1328M7.4053 2.16997L4.48377 2.72254L3.01426 3.00085L-4.42601 4.41119M-68.7869 0H-112.608M-68.7869 0L-81.6696 2.16997M-37.1328 2.16997H-81.6696M-37.1328 2.16997L-49.7022 4.41119M-112.608 0H-156.43M-112.608 0L-126.206 2.16997M-81.6696 2.16997H-126.206M-81.6696 2.16997L-94.9798 4.41119M-156.43 0H-200.252M-156.43 0L-170.743 2.16997M-126.206 2.16997H-170.743M-126.206 2.16997L-140.256 4.41119M-200.252 0H-205.719L-211.132 0.00537786L-216.432 0.0188225L-221.565 0.0457118L-226.475 0.0860458L-231.111 0.15058L-235.417 0.239315L-239.413 0.349561L-242.842 0.505519L-245.965 0.685678L-246.822 0.748868V2.16862M-200.252 0L-215.28 2.16997M-170.743 2.16997H-215.28M-170.743 2.16997L-174.395 2.72389L-185.532 4.40985M-215.28 2.16997L-230.809 4.41119M-215.28 2.16997H-246.821V4.41119M-140.256 4.41119L-154.779 6.72905M-140.256 4.41119H-94.9798M-140.256 4.41119L-185.532 4.40985M-94.9798 4.41119L-108.74 6.72905M-94.9798 4.41119H-49.7022M40.8516 4.41119L29.3846 6.72905M40.8516 4.41119H86.1278M40.8516 4.41119H-4.42601M86.1278 4.41119L75.4259 6.72905M86.1278 4.41119H131.404M221.957 4.41119L213.548 6.72771M221.957 4.41119H267.234M221.957 4.41119H176.68M267.234 4.41119H312.51M403.064 4.41119L397.713 6.72771M403.064 4.41119H448.34M403.064 4.41119L357.788 4.40985M448.34 4.41119H493.617M584.17 4.41119L583.604 4.98394L582.745 5.85112L582.169 6.43461L581.878 6.72905M584.17 4.41119H629.448M584.17 4.41119L538.894 4.40985M629.448 4.41119L628.879 5.27165L628.112 6.43461L627.919 6.72905M629.448 4.41119H674.724M765.277 4.41119L765.372 4.69622L765.465 4.98394L765.562 5.27165L765.656 5.56071L765.753 5.85112L766.042 6.72905M765.277 4.41119H810.553M765.277 4.41119L720 4.40985M810.553 4.41119L811.122 5.27165L811.889 6.43461L812.082 6.72771M810.553 4.41119H855.831M946.384 4.41119L947.328 4.98394L950.207 6.72771M946.384 4.41119H991.661M946.384 4.41119H901.107M991.661 4.41119H1036.94M1127.49 4.41119L1133.49 6.43461L1134.36 6.72771L1135.25 7.02349L1141.49 9.12624M1127.49 4.41119H1172.76M1127.49 4.41119L1082.21 4.40985M1172.76 4.41119L1218.04 4.40985M1308.59 4.41119H1353.88M1308.59 4.41119L1263.33 4.40985M1353.88 4.41119L1364.58 6.72905M1353.88 4.41119H1399.14M1489.71 4.41119L1444.43 4.40985M1489.71 4.41119H1534.98M1534.98 4.41119L1548.74 6.72905M1534.98 4.41119H1580.26M-246.978 22.462H-246.822M-246.822 22.462H-202.151M-246.822 22.462V25.4346M-246.822 22.462V21.4147M-202.151 22.462L-185.146 19.5983M-202.151 22.462L-219.807 25.4346M-202.151 22.462H-150.92M-185.146 19.5983H-235.432M-185.146 19.5983L-168.757 16.8381M-185.146 19.5983H-134.861M-219.807 25.4346L-238.151 28.5255M-219.807 25.4346H-167.594M-219.807 25.4346H-246.822M-150.92 22.462L-134.861 19.5983M-150.92 22.462L-167.594 25.4346M-150.92 22.462H-99.6895M-235.432 19.5983L-218.134 16.8381M-235.432 19.5983H-246.822M-235.432 19.5983L-246.822 21.4147M-168.757 16.8381L-152.952 14.176M-168.757 16.8381H-119.383M-168.757 16.8381H-218.134M-134.861 19.5983L-119.383 16.8381M-134.861 19.5983H-84.575M-218.134 16.8381L-201.451 14.176M-218.134 16.8381H-246.822M-246.822 19.5983V21.4147M-246.822 19.5983V16.8381M-185.349 11.6068H-137.699M-185.349 11.6068L-169.801 9.12624M-185.349 11.6068H-232.997M-185.349 11.6068L-201.449 14.1747M-137.699 11.6068L-122.969 9.12624H-169.803M-137.699 11.6068L-152.953 14.1747M-137.699 11.6068H-90.0497M-169.801 9.12624L-154.779 6.72905M-169.801 9.12624H-216.635M-90.0497 11.6068L-76.1398 9.12624M-90.0497 11.6068L-104.456 14.176M-90.0497 11.6068H-42.3991M-154.779 6.72905H-108.74M-154.779 6.72905H-200.822M-216.635 9.12624L-233 11.6054M-216.635 9.12624L-200.822 6.72905M-216.635 9.12624H-246.822M-76.1398 9.12624H-122.972L-108.74 6.72905M-76.1398 9.12624H-29.3067M-76.1398 9.12624L-62.6978 6.72905M-108.74 6.72905H-62.6978M-247.313 67.6643H-246.822M-246.822 67.6643H-205.975M-246.822 67.6643V62.9156V62.5526M-205.975 67.6643L-184.048 62.9156M-205.975 67.6643L-228.992 72.6482M-205.975 67.6643H-139.833M-184.048 62.9156L-163.135 58.3875M-184.048 62.9156H-119.473M-184.048 62.9156H-246.821M-228.992 72.6482H-161.206M-228.992 72.6482H-246.822M-228.992 72.6482L-246.822 76.5095L-247.019 76.5512M-139.833 67.6643L-119.473 62.9156M-139.833 67.6643L-161.206 72.6482M-139.833 67.6643L-73.6929 67.6629M-163.135 58.3875H-226.217M-163.135 58.3875L-143.17 54.0637M-163.135 58.3875H-100.054M-119.473 62.9156L-100.054 58.3875M-119.473 62.9156H-54.8972M-226.217 58.3875L-204.824 54.0637M-226.217 58.3875H-246.822M-226.217 58.3875L-246.822 62.5526M-204.824 54.0637L-184.377 49.9308M-204.824 54.0637H-143.17M-204.824 54.0637H-246.822M-246.822 58.3875V62.5526M-246.822 58.3875V54.0637M-184.377 49.9308H-124.086M-184.377 49.9308L-164.815 45.978M-184.377 49.9308H-244.669M-124.086 49.9308L-105.827 45.978M-124.086 49.9308L-143.17 54.0637M-124.086 49.9308H-63.7936L-46.8399 45.978M-164.815 45.978H-105.827M-164.815 45.978H-223.803M-164.815 45.978L-146.082 42.192M-244.669 49.9308H-246.822M-244.669 49.9308L-246.822 50.3395M-105.827 45.978L-88.3422 42.192M-105.827 45.978H-46.8399M-143.17 54.0637H-81.5136M-223.803 45.978L-203.82 42.192M-223.803 45.978L-244.667 49.9308M-223.803 45.978H-246.822M-146.082 42.192H-88.3422M-146.082 42.192H-203.82M-146.082 42.192L-128.125 38.562M-88.3422 42.192L-71.5821 38.5633L-55.5036 35.0812M-88.3422 42.192H-30.6028M-46.8399 45.978L-30.6028 42.192M-46.8399 45.978H12.1486M-110.897 35.0812H-55.5036M-110.897 35.0812L-94.3546 31.7375M-110.897 35.0812H-166.289M-110.897 35.0812L-128.125 38.5633M-55.5036 35.0812L-40.0651 31.7375M-55.5036 35.0812H-0.11026M-94.3546 31.7375H-40.0651M-94.3546 31.7375H-148.644M-94.3546 31.7375L-78.459 28.5242M-166.289 35.0812H-221.682M-166.289 35.0812L-148.644 31.7375M-166.289 35.0812L-184.665 38.5633H-241.208M-40.0651 31.7375L-25.2289 28.5242M-40.0651 31.7375H14.2258M-0.11026 35.0812L14.2258 31.7375M-0.11026 35.0812L-15.0406 38.5633M-0.11026 35.0812H55.2831M-148.644 31.7375L-202.935 31.7388M-148.644 31.7375L-131.689 28.5242M-78.459 28.5242H-25.2289M-78.459 28.5242H-131.689M-78.459 28.5242L-63.1725 25.4346M-25.2289 28.5242L-10.9601 25.4346M-25.2289 28.5242L28.0025 28.5255M14.2258 31.7375L28.0025 28.5255M14.2258 31.7375H68.5166M-48.46 22.4606H2.77092M-48.46 22.4606L-34.2893 19.5969M-48.46 22.4606H-99.6895M-48.46 22.4606L-63.1725 25.4346M-34.2893 19.5969L15.9964 19.5983M-34.2893 19.5969L-84.575 19.5983M-34.2893 19.5969L-20.6322 16.8381M-63.1725 25.4346H-10.9601M-63.1725 25.4346H-115.383M2.77092 22.462L15.9964 19.5983M2.77092 22.462L-10.9601 25.4346M2.77092 22.462H54.0018M15.9964 19.5983L28.7433 16.8381M15.9964 19.5983H66.2821M-10.9601 25.4346H41.2509M54.0018 22.462L66.2821 19.5983M54.0018 22.462L41.2509 25.4346M54.0018 22.462H105.233M-84.575 19.5983L-70.0077 16.8381M-84.575 19.5983L-99.6895 22.462M-20.6322 16.8381H28.7433M-20.6322 16.8381H-70.0077M-20.6322 16.8381L-7.46047 14.1747M28.7433 16.8381L41.0358 14.1747M28.7433 16.8381H78.1188M66.2821 19.5983L78.1188 16.8381M66.2821 19.5983L116.569 19.5969M5.25012 11.6068H52.8993M5.25012 11.6068L17.5238 9.12624M5.25012 11.6068H-42.3991M5.25012 11.6068L-7.46047 14.1747M52.8993 11.6068L64.3555 9.12624M52.8993 11.6068L41.0358 14.1747M52.8993 11.6068H100.55M17.5238 9.12624H64.3555M17.5238 9.12624L29.3846 6.72905M17.5238 9.12624H-29.3067M-42.3991 11.6068L-29.3067 9.12624M-42.3991 11.6068L-55.958 14.176M-7.46047 14.1747H41.0358M-7.46047 14.1747L-55.958 14.176M64.3555 9.12624H111.189M64.3555 9.12624L75.4259 6.72905M41.0358 14.1747L89.5347 14.176M100.55 11.6068L111.189 9.12624M100.55 11.6068L89.5347 14.176M100.55 11.6068H148.2M29.3846 6.72905H75.4259M29.3846 6.72905H-16.6566M-29.3067 9.12624L-16.6566 6.72905M111.189 9.12624L158.019 9.12489M111.189 9.12624L121.467 6.72905M75.4259 6.72905H121.467M-212.935 149.981L-182.076 140.624M-212.935 149.981L-245.984 159.998M-212.935 149.981H-119.643M-212.935 149.981H-246.824M-182.076 140.624L-153.193 131.868M-182.076 140.624H-91.8701M-182.076 140.624H-246.822M-245.984 159.998H-149.384M-245.984 159.998H-246.822M-245.984 159.998L-246.822 160.252M-119.643 149.981L-91.8701 140.624M-119.643 149.981L-149.384 159.998M-119.643 149.981H-26.3489M-153.193 131.868L-126.1 123.655M-153.193 131.868H-65.8721M-153.193 131.868H-240.51M-91.8701 140.624L-65.8721 131.868M-91.8701 140.624H-1.66045M-182.701 115.936H-100.637M-182.701 115.936L-156.33 108.668M-182.701 115.936L-210.709 123.655M-182.701 115.936H-246.822M-100.637 115.936L-76.6655 108.668H-156.33M-100.637 115.936L-126.1 123.655M-100.637 115.936H-18.5738M-156.33 108.668H-235.998L-208.861 101.812M-156.33 108.668L-131.457 101.812M-210.709 123.655H-126.1M-210.709 123.655L-240.51 131.868M-126.1 123.655H-41.4903M-18.5738 115.936L3.00216 108.669M-18.5738 115.936L-41.4903 123.655M-18.5738 115.936H63.4897M-131.457 101.812H-54.0516M-131.457 101.812H-208.861M-131.457 101.812L-107.957 95.3361M-54.0516 101.812L-76.6655 108.669H3.00216M-54.0516 101.812L-32.688 95.3361M-54.0516 101.812H23.3534M3.00216 108.669L23.3534 101.812M-85.7178 89.2053H-12.4699M-85.7178 89.2053L-64.6419 83.3972M-85.7178 89.2053H-158.964M-85.7178 89.2053L-107.957 95.3347M-12.4699 89.2053L6.68869 83.3972M-12.4699 89.2053L-32.688 95.3347M-12.4699 89.2053H60.7766M-64.6419 83.3972H6.68869M-64.6419 83.3972H-135.974M-64.6419 83.3972L-44.6417 77.8849M-158.964 89.2053L-135.974 83.3972M-158.964 89.2053L-183.225 95.3361M6.68869 83.3972L24.8713 77.8849M6.68869 83.3972H78.0193M60.7766 89.2053L78.0193 83.3972M60.7766 89.2053L42.5806 95.3361M60.7766 89.2053H134.023M-135.974 83.3972L-207.305 83.3986M-135.974 83.3972L-114.155 77.8863M-44.6417 77.8849H24.8713M-44.6417 77.8849L-114.155 77.8863M-44.6417 77.8849L-25.6349 72.6469M24.8713 77.8849L42.149 72.6469M24.8713 77.8849L94.3842 77.8863M78.0193 83.3972L94.3842 77.8863M78.0193 83.3972H149.35M-7.55188 67.6629H58.5905M-7.55188 67.6629L9.67745 62.9143M-7.55188 67.6629H-73.6929M-7.55188 67.6629L-25.6349 72.6469M58.5905 67.6629L74.2521 62.9143M58.5905 67.6629L42.149 72.6469M58.5905 67.6629H124.731M9.67745 62.9143H74.2521M9.67745 62.9143H-54.8972M9.67745 62.9143L26.1082 58.3861M-73.6929 67.6629L-54.8972 62.9156M-73.6929 67.6629L-93.4202 72.6482M-25.6349 72.6469H42.149M-25.6349 72.6469L-93.4202 72.6482M74.2521 62.9143L89.1892 58.3861M74.2521 62.9143H138.827M42.149 72.6469L109.934 72.6482M124.731 67.6629L138.827 62.9156M124.731 67.6629L109.934 72.6482M124.731 67.6629H190.871M56.7902 49.9308H117.081M56.7902 49.9308L71.1357 45.9767M56.7902 49.9308L-3.50236 49.9294M56.7902 49.9308L41.7954 54.0623M117.081 49.9308L130.124 45.9767M117.081 49.9308L103.451 54.0623M117.081 49.9308L177.373 49.9294L189.111 45.978M71.1357 45.9767H130.124M71.1357 45.9767H12.1486M71.1357 45.9767L84.8734 42.1907M130.124 45.9767L142.613 42.1907M130.124 45.9767H189.111M84.8734 42.1907H142.613M84.8734 42.1907L27.1353 42.192M84.8734 42.1907L98.0425 38.562M142.613 42.1907L154.584 38.5633M142.613 42.1907L200.351 42.192M110.675 35.0798H166.068M110.675 35.0798L122.806 31.7361M110.675 35.0798H55.2831M110.675 35.0798L98.0425 38.562M166.068 35.0798L167.472 34.6536L177.097 31.7361M166.068 35.0798L154.584 38.562M166.068 35.0798H221.463M122.806 31.7361H177.097M122.806 31.7361H68.5166M122.806 31.7361L134.464 28.5228M98.0425 38.562H154.584M98.0425 38.562H41.501M177.097 31.7361L187.694 28.5228M177.097 31.7361H231.388M154.584 38.562H211.125M134.464 28.5228H187.694M134.464 28.5228L81.2326 28.5242M134.464 28.5228L145.674 25.4333M187.694 28.5228L196.634 25.8151L197.885 25.4333M187.694 28.5228L240.924 28.5255M156.462 22.4593H207.694M156.462 22.4593L166.855 19.5956M156.462 22.4593H105.233M156.462 22.4593L145.674 25.4333M207.694 22.4593L217.141 19.5969M207.694 22.4593L204.06 23.5631L197.885 25.4333M207.694 22.4593L258.925 22.4606M145.674 25.4333H197.885M145.674 25.4333L93.4619 25.4346M217.141 19.5969H166.855M217.141 19.5969L226.245 16.8367M217.141 19.5969H267.426M197.885 25.4333L250.096 25.4346M166.855 19.5969H116.569M166.855 19.5969L176.87 16.8367M116.569 19.5969L127.494 16.8381M116.569 19.5969L115.175 19.9492L105.233 22.462M267.426 19.5969L275.621 16.8381M267.426 19.5969L258.925 22.462M267.426 19.5969H317.712M195.85 11.6054H243.5M195.85 11.6054L204.851 9.12489M195.85 11.6054H148.2M195.85 11.6054L186.529 14.1734M243.5 11.6054L249.665 9.73662L250.676 9.43008L251.684 9.12489M243.5 11.6054L235.026 14.1734M243.5 11.6054H291.151M204.851 9.12489H251.684M204.851 9.12489L213.548 6.72771M204.851 9.12489H158.019M251.684 9.12489H298.516M251.684 9.12489L259.589 6.72771M213.548 6.72771H259.589M213.548 6.72771L167.508 6.72905M158.019 9.12489L148.2 11.6068M158.019 9.12489L167.508 6.72905M298.516 9.12489L291.151 11.6068M298.516 9.12489H345.346M298.516 9.12489L305.632 6.72905M259.589 6.72771L305.632 6.72905M259.589 6.72771L262.487 5.85112L267.234 4.41254M-179.134 256.554H-50.6864M-179.134 256.554L-138.688 239.037M-179.134 256.554L-223.578 275.801M-179.134 256.554H-246.822M-50.6864 256.554L-16.018 239.037H-138.688M-50.6864 256.554L-88.7805 275.801M-50.6864 256.554H77.7612M-138.688 239.037L-101.725 223.028M-138.688 239.037H-246.824M-223.578 275.801H-88.7805M-223.578 275.801L-246.822 285.868M-223.578 275.801H-246.822M-88.7805 275.801L-130.838 297.052M-88.7805 275.801H46.017M77.7612 256.554L106.651 239.037M77.7612 256.554L46.017 275.801M77.7612 256.554H206.21M-101.725 223.028H15.663M-101.725 223.028H-219.114M-101.725 223.028L-67.8122 208.341M15.663 223.028L-16.0193 239.037H106.65M15.663 223.028L44.7317 208.341M15.663 223.028H133.054M-36.5897 194.819H71.4946M-36.5897 194.819L-7.74684 182.327M-36.5897 194.819H-144.673M-144.673 194.819L-111.709 182.327M-144.673 194.819L-180.357 208.341M-144.673 194.819H-246.822M-36.5883 194.819L-67.8122 208.341M-67.8122 208.341H44.7317M-67.8122 208.341H-180.357M71.496 194.819L96.218 182.327M71.496 194.819L44.7317 208.341M71.496 194.819H179.58M96.218 182.327H-7.74548M96.218 182.327L119.126 170.753M96.218 182.327H200.183M44.7317 208.341H157.277M179.58 194.819L200.183 182.327M179.58 194.819L157.277 208.341M179.58 194.819H287.663M-7.74548 182.327H-111.709M-7.74548 182.327L18.9812 170.753M-111.709 182.327H-215.673M-111.709 182.327L-81.1654 170.753M18.9812 170.753H119.126M18.9812 170.753H-81.1654M18.9812 170.753L43.8121 159.998M119.126 170.753L140.411 159.998M119.126 170.753H219.272M200.183 182.327L219.272 170.753M200.183 182.327H304.146M66.945 149.981H160.239M66.945 149.981L88.5479 140.624M66.945 149.981H-26.3489M66.945 149.981L43.8121 159.998M160.239 149.981L178.755 140.624M160.239 149.981L140.411 159.998M160.239 149.981H253.531M88.5479 140.624H178.755M88.5479 140.624H-1.66045M88.5479 140.624L108.766 131.868M-26.3489 149.981L-1.6591 140.624M-26.3489 149.981L-52.7851 159.998M43.8121 159.998H140.411M43.8121 159.998H-52.7864M178.755 140.624L196.085 131.868M178.755 140.624H268.963M140.411 159.998H237.009M253.531 149.981L268.963 140.624M253.531 149.981L237.009 159.998M253.531 149.981L346.827 149.979M-1.66045 140.624L21.4469 131.868M108.766 131.868H196.085M108.766 131.868H21.4469M108.766 131.868L127.73 123.655M196.085 131.868L212.34 123.655M196.085 131.868H283.404M268.963 140.624L283.404 131.868M268.963 140.624L359.17 140.623M145.553 115.936H227.617M145.553 115.936L162.335 108.668M145.553 115.936H63.4897M145.553 115.936L127.73 123.655M227.617 115.936L242.001 108.668H162.335M227.617 115.936L212.34 123.655M227.617 115.936H309.682M162.335 108.668H82.6685M162.335 108.668L178.165 101.812M63.4897 115.936L82.6685 108.668M63.4897 115.936L43.1197 123.655M127.73 123.655H212.34M127.73 123.655H43.1197M212.34 123.655H296.951M309.682 115.936L321.667 108.668M309.682 115.936L296.951 123.655M309.682 115.936L391.745 115.935M82.6685 108.668H3.00216M178.165 101.812H255.57M178.165 101.812L100.758 101.811M178.165 101.812L193.119 95.3347M255.57 101.812L242.001 108.669H321.667M255.57 101.812L268.388 95.3347M255.57 101.812L332.974 101.811M207.271 89.2053H280.519M207.271 89.2053L220.682 83.3972M207.271 89.2053H134.023M207.271 89.2053L193.119 95.3347M280.519 89.2053L292.014 83.3972M280.519 89.2053L268.388 95.3347M280.519 89.2053H353.765M220.682 83.3972H292.014M220.682 83.3972H149.35M220.682 83.3972L233.41 77.8849M134.023 89.2053L149.35 83.3972M134.023 89.2053L117.851 95.3361M193.119 95.3347H268.388M292.014 83.3972L302.923 77.8849M292.014 83.3972H363.345M268.388 95.3347H343.656M353.765 89.2053L363.345 83.3972M353.765 89.2053L343.656 95.3347M353.765 89.2053H427.012M149.35 83.3972L163.897 77.8849M233.41 77.8849H302.923M233.41 77.8849H163.897M233.41 77.8849L245.505 72.6469M302.923 77.8849L313.29 72.6469M302.923 77.8849H372.436M363.345 83.3972L372.436 77.8849M363.345 83.3972H434.677M257.013 67.6629H323.154M257.013 67.6629L267.976 62.9143M257.013 67.6629H190.871M257.013 67.6629L245.505 72.6469M323.154 67.6629L332.551 62.9143M323.154 67.6629L313.29 72.6469M323.154 67.6629H389.295M267.976 62.9143H332.551M267.976 62.9143H203.402M267.976 62.9143L278.432 58.3861M190.871 67.6629L203.402 62.9156M190.871 67.6629L177.72 72.6469M245.505 72.6469H313.29M245.505 72.6469H177.72M332.551 62.9143L341.513 58.3861M332.551 62.9143H397.126M313.29 72.6469H381.075M389.295 67.6629L397.126 62.9143M389.295 67.6629L381.075 72.6469M389.295 67.6629H455.436M278.432 58.3861H341.513M278.432 58.3861H215.351M278.432 58.3861L288.416 54.0623M341.513 58.3861L350.071 54.0623M341.513 58.3861H404.595M397.126 62.9143L401.835 60.06L404.595 58.3861M397.126 62.9143H461.7M297.958 49.9308H358.25M297.958 49.9308L307.087 45.9767M297.958 49.9308L237.665 49.9294M297.958 49.9308L288.416 54.0623M358.25 49.9308L366.074 45.9767M358.25 49.9308L350.071 54.0623M358.25 49.9308L418.542 49.9294M307.087 45.9767H366.074M307.087 45.9767H248.098M307.087 45.9767L315.83 42.1907M237.665 49.9294L177.373 49.9321L165.106 54.0637M237.665 49.9294L248.098 45.978M237.665 49.9294L226.76 54.0637M288.416 54.0623H350.071M288.416 54.0623H226.76M366.074 45.9767L373.568 42.1907M366.074 45.9767H425.062M350.071 54.0623H411.727M418.542 49.9294L425.062 45.9767M418.542 49.9294L416.865 50.9459L411.727 54.0623M418.542 49.9294H478.833M315.83 42.1907H373.568M315.83 42.1907H258.09M315.83 42.1907L324.209 38.562M373.568 42.1907L377.197 40.3568L380.75 38.5606M373.568 42.1907H431.306M425.062 45.9767L431.306 42.1907M425.062 45.9767H484.049M332.248 35.0798H387.642M332.248 35.0798L339.968 31.7361M332.248 35.0798H276.855M332.248 35.0798L324.209 38.562M387.642 35.0798L386.795 35.506L380.75 38.5606M387.642 35.0798L394.258 31.7361M387.642 35.0798H443.035M339.968 31.7361H394.258M339.968 31.7361H285.677M339.968 31.7361L347.386 28.5228M324.209 38.562L380.75 38.5606M324.209 38.562L267.667 38.5606M380.75 38.5606L437.293 38.562M394.258 31.7361L400.617 28.5228M394.258 31.7361H448.549M443.035 35.0798L437.293 38.562M443.035 35.0798H498.428M361.386 22.4593H412.617M361.386 22.4593L367.999 19.5956M361.386 22.4593H310.155M361.386 22.4593L354.521 25.4333M412.617 22.4593L418.285 19.5969M412.617 22.4593L410.436 23.5631L408.965 24.3053L406.732 25.4346M412.617 22.4593L463.847 22.4606M354.521 25.4333L406.732 25.4346M354.521 25.4333L347.386 28.5255M354.521 25.4333H302.309M418.285 19.5969H367.999M418.285 19.5969L420.357 18.5496L421.723 17.8599L423.747 16.8367M418.285 19.5969H468.571M406.732 25.4346L400.617 28.5255M406.732 25.4346H458.943M367.999 19.5969H317.712M367.999 19.5969L374.372 16.8367M317.712 19.5969L324.996 16.8381M317.712 19.5969L310.155 22.462M468.571 19.5969L469.149 19.2474L469.724 18.8978L472 17.5184L473.123 16.8381M468.571 19.5969L465.044 21.736L463.847 22.462M468.571 19.5969H518.858M386.451 11.6054H434.1M386.451 11.6054L390.765 9.73662L392.178 9.12489M386.451 11.6054H338.8M386.451 11.6054L381.272 13.848L380.519 14.1747M434.1 11.6054L437.798 9.73662L438.406 9.43008L439.011 9.12489M434.1 11.6054L431.58 12.8786L429.016 14.1747M434.1 11.6054H481.75M392.178 9.12489H439.011M392.178 9.12489L397.713 6.72771M392.178 9.12489H345.346M380.519 14.1747H429.016M380.519 14.1747L379.002 14.8321L374.372 16.8381M380.519 14.1747L332.021 14.176M439.011 9.12489H485.842M439.011 9.12489L443.754 6.72771M429.016 14.1747L426.405 15.4936L423.747 16.8381M429.016 14.1747L477.514 14.176M397.713 6.72771H443.754M397.713 6.72771L351.672 6.72905M345.346 9.12489L338.8 11.6068M345.346 9.12489L350.111 7.32062L351.672 6.72905M485.842 9.12489L481.75 11.6068M485.842 9.12489H532.673M485.842 9.12489L488.82 7.32062L489.796 6.72905M443.754 6.72771L489.796 6.72905M443.754 6.72771L445.493 5.85112L448.34 4.41254M334.658 256.552H463.105M334.658 256.552L351.991 239.035M334.658 256.552H206.21M334.658 256.552L315.609 275.8M463.105 256.552L474.661 239.035M463.105 256.552L450.407 275.8M463.105 256.552H591.553M351.991 239.035H474.661M351.991 239.035H229.321M351.991 239.035L367.832 223.027M474.661 239.035L485.222 223.027M474.661 239.035H597.331M229.321 239.035L106.651 239.037M229.321 239.035L250.443 223.028M229.321 239.035L206.21 256.554M597.331 239.035L602.611 223.028M597.331 239.035L591.553 256.554M597.331 239.035H720M395.749 194.817H503.832M395.749 194.817L408.11 182.326M395.749 194.817H287.663M395.749 194.817L382.366 208.34M503.832 194.817L512.073 182.326M503.832 194.817L494.911 208.34M503.832 194.817H611.916M408.11 182.326H512.073M408.11 182.326H304.146M408.11 182.326L419.563 170.751M512.073 182.326L519.709 170.751M512.073 182.326H616.037M419.563 170.751H519.709M419.563 170.751L319.418 170.753M419.563 170.751L430.205 159.997M519.709 170.751L526.805 159.997M519.709 170.751L619.855 170.753M440.119 149.979H533.413M440.119 149.979L449.378 140.623M440.119 149.979H346.827M440.119 149.979L430.205 159.997M533.413 149.979L539.585 140.623M533.413 149.979L526.805 159.997M533.413 149.979H626.707M449.378 140.623H539.585M449.378 140.623H359.17M449.378 140.623L458.043 131.867M346.827 149.979L359.17 140.623M346.827 149.979L333.606 159.998M430.205 159.997H526.805M430.205 159.997L333.606 159.998M539.585 140.623L545.362 131.867M539.585 140.623H629.794M526.805 159.997L623.402 159.998M626.707 149.979L629.794 140.623M626.707 149.979L623.402 159.998M626.707 149.979H720M359.17 140.623L370.724 131.868M458.043 131.867H545.362M458.043 131.867L370.724 131.868M458.043 131.867L466.171 123.653M545.362 131.867L550.781 123.653M545.362 131.867L632.681 131.868M629.794 140.623L632.681 131.868M629.794 140.623H720M473.809 115.935H555.872M473.809 115.935L481.001 108.666M473.809 115.935H391.745M473.809 115.935L466.171 123.653M555.872 115.935L560.668 108.666M555.872 115.935L550.781 123.653M555.872 115.935H637.937M481.001 108.666H560.668M481.001 108.666H401.335M481.001 108.666L487.784 101.811M391.745 115.935L401.335 108.666M391.745 115.935L381.561 123.655M466.171 123.653H550.781M466.171 123.653L381.561 123.655M560.668 108.666L565.191 101.811M560.668 108.666L640.334 108.668H720M550.781 123.653L635.391 123.655M637.937 115.935L640.334 108.669L642.596 101.812M637.937 115.935L635.391 123.655M637.937 115.935L720 115.936M401.335 108.666L321.667 108.668M401.335 108.666L410.379 101.812M487.784 101.811H565.191M487.784 101.811L410.379 101.812M487.784 101.811L494.195 95.3361M565.191 101.811L569.463 95.3361M565.191 101.811L642.596 101.812M500.258 89.2053H573.506M500.258 89.2053L506.006 83.3972M500.258 89.2053H427.012M500.258 89.2053L494.195 95.3347M573.506 89.2053L577.338 83.3972M573.506 89.2053L569.463 95.3347M573.506 89.2053H646.754M506.006 83.3972H577.338M506.006 83.3972H434.677M506.006 83.3972L511.462 77.8849M427.012 89.2053L434.677 83.3972M427.012 89.2053L418.925 95.3347M577.338 83.3972L580.975 77.8849M577.338 83.3972H648.67M646.754 89.2053L648.67 83.3972M646.754 89.2053L644.732 95.3361M646.754 89.2053H720M434.677 83.3972L441.949 77.8863M511.462 77.8849H580.975M511.462 77.8849L441.949 77.8863M511.462 77.8849L516.646 72.6469M580.975 77.8849L584.43 72.6469M580.975 77.8849L650.488 77.8863M648.67 83.3972L650.488 77.8863M648.67 83.3972H720M521.577 67.6629H587.718M521.577 67.6629L526.275 62.9143M521.577 67.6629H455.436M521.577 67.6629L516.646 72.6469M587.718 67.6629L590.851 62.9143M587.718 67.6629L584.43 72.6469M587.718 67.6629H653.859M526.275 62.9143H590.851M526.275 62.9143H461.7M526.275 62.9143L527.981 61.192L530.757 58.3861M455.436 67.6629L461.7 62.9143M455.436 67.6629L448.861 72.6482M516.646 72.6469H584.43M516.646 72.6469L448.861 72.6482M590.851 62.9143L593.838 58.3861M590.851 62.9143H655.426M584.43 72.6469L652.215 72.6482M653.859 67.6629L655.426 62.9156M653.859 67.6629L652.215 72.6482M653.859 67.6629L720 67.6643M461.7 62.9143L467.676 58.3861M539.125 49.9308H599.417M539.125 49.9308L543.038 45.9767M539.125 49.9308L478.833 49.9294M539.125 49.9308L536.076 53.0123L535.036 54.0623M599.417 49.9308L600.409 48.4277L602.025 45.9767M599.417 49.9308L596.69 54.0623M599.417 49.9308L659.709 49.9294L661.013 45.978M543.038 45.9767L543.514 45.494L546.784 42.1907M543.038 45.9767H602.025M543.038 45.9767H484.049M478.833 49.9294L484.049 45.9767M478.833 49.9294L478.165 50.4363L476.137 51.973L473.38 54.0623M602.025 45.9767L602.974 44.5381L603.287 44.0635L603.599 43.5916L604.523 42.1907M602.025 45.9767H661.013M546.784 42.1907H604.523M546.784 42.1907L489.045 42.192M546.784 42.1907L550.376 38.562M484.049 45.9767L489.045 42.192M604.523 42.1907L605.433 40.8126L605.732 40.3582L606.917 38.5633M604.523 42.1907L662.262 42.192M553.82 35.0798H609.214M553.82 35.0798L555.492 33.3912L555.904 32.9744L556.314 32.5589L556.723 32.1475L557.129 31.7361M553.82 35.0798H498.428M553.82 35.0798L550.376 38.562M609.214 35.0798L610.877 32.5589L611.15 32.1475L611.419 31.7361M609.214 35.0798L606.917 38.562M609.214 35.0798H664.607M557.129 31.7361H611.419M557.129 31.7361H502.84L501.752 32.5589L498.428 35.0798M557.129 31.7361L559.131 29.7127L559.525 29.3147L560.309 28.5242M498.428 35.0798L496.726 36.3678L495 37.6773L493.833 38.562M550.376 38.562H606.917M550.376 38.562H493.833M611.419 31.7361H665.711H720M606.917 38.562H663.459M664.607 35.0798L665.711 31.7375L666.77 28.5242M664.607 35.0798H720M560.309 28.5242L613.539 28.5228M560.309 28.5242L507.077 28.5228M560.309 28.5242L563.366 25.4346M611.419 31.7375L612.754 29.714L613.017 29.3147L613.278 28.9181L613.539 28.5228M613.539 28.5228L615.577 25.4333M613.539 28.5228L666.77 28.5242M566.309 22.4593H617.54M566.309 22.4593L569.143 19.5956M566.309 22.4593H515.077M566.309 22.4593L565.583 23.1934L564.482 24.3053L563.366 25.4346M617.54 22.4593L617.298 22.8263L615.826 25.0555L615.577 25.4333M617.54 22.4593L619.429 19.5969M617.54 22.4593L668.77 22.4606M563.366 25.4346L615.577 25.4333M563.366 25.4346H511.155M615.577 25.4333H667.79M619.429 19.5969H569.143M619.429 19.5969L620.12 18.5496L620.347 18.2041L620.575 17.8599L621.249 16.8367M619.429 19.5969H669.715M668.77 22.4606L669.482 20.3028L669.598 19.9478L669.715 19.5969M668.77 22.4606L667.79 25.4333M668.77 22.4606H720M569.143 19.5969H518.858M569.143 19.5969L571.874 16.8367M518.858 19.5969L522.498 16.8381M518.858 19.5969L518.392 19.9492L515.077 22.462M571.874 16.8367H621.249M571.874 16.8367H522.498M571.874 16.8367L572.541 16.1618L572.873 15.8257L573.202 15.4936L573.532 15.1615L573.858 14.8308L574.185 14.5014L574.508 14.1747M621.249 16.8367H670.625M669.715 19.5969L670.625 16.8367M669.715 19.5969L720 19.5983M577.05 11.6054H624.701M577.05 11.6054L578.9 9.73662L579.505 9.12489M577.05 11.6054H529.401M577.05 11.6054L576.108 12.5573L575.79 12.8786L575.472 13.2013L574.508 14.1747M624.701 11.6054L624.909 11.2908L625.321 10.6643L625.731 10.0458L626.337 9.12489M624.701 11.6054L623.86 12.8786L623.648 13.2013L623.22 13.848L623.007 14.1747M624.701 11.6054H672.35M579.505 9.12489H626.337M579.505 9.12489L581.585 7.02215L581.878 6.72636M579.505 9.12489H532.673M574.508 14.1747H623.007M574.508 14.1747H526.01M626.337 9.12489L626.539 8.8197L626.738 8.51719L626.937 8.21603L627.134 7.91622L627.723 7.02215L627.919 6.72636M626.337 9.12489H673.169M623.007 14.1747L622.789 14.5028L622.572 14.8321L622.355 15.1629L622.135 15.495L621.694 16.1632L621.473 16.4993L621.249 16.8381M623.007 14.1747L671.503 14.176M532.673 9.12489L529.401 11.6068M532.673 9.12489L534.269 7.91622L535.447 7.02349L535.836 6.72771M673.169 9.12489L672.35 11.6068M673.169 9.12489L673.268 8.82104L673.369 8.51854L673.469 8.21738L673.959 6.72905M673.169 9.12489L720 9.12624M848.448 256.552H976.897M848.448 256.552L842.67 239.035M848.448 256.552H720M848.448 256.552L854.798 275.8M976.897 256.552L965.341 239.035M976.897 256.552L989.594 275.8M976.897 256.552H1105.34M842.67 239.035H965.341M842.67 239.035H720M842.67 239.035L837.39 223.027M965.341 239.035L954.779 223.027M965.341 239.035H1088.01M720 239.035V223.028M720 239.035V256.554M1088.01 239.035L1072.17 223.028M1088.01 239.035L1105.34 256.554M1088.01 239.035L1210.68 239.037M828.085 194.817H936.169M828.085 194.817L823.964 182.326M828.085 194.817H720M828.085 194.817L832.546 208.34M936.169 194.817L927.928 182.326M936.169 194.817L945.09 208.34M936.169 194.817H1044.25M823.964 182.326H927.928M823.964 182.326H720M823.964 182.326L820.146 170.751M927.928 182.326L920.292 170.751M927.928 182.326H1031.89M820.146 170.751H920.292M820.146 170.751L720 170.753M820.146 170.751L816.599 159.997M920.292 170.751L913.196 159.997M920.292 170.751L1020.44 170.753M813.294 149.979H906.588M813.294 149.979L810.209 140.623M813.294 149.979H720M813.294 149.979L816.599 159.997M906.588 149.979L900.416 140.623M906.588 149.979L913.196 159.997M906.588 149.979H999.882M810.209 140.623H900.416M810.209 140.623H720M810.209 140.623L807.32 131.867M720 149.979V140.623M720 149.979V159.998M816.599 159.997H913.196M816.599 159.997L720 159.998M900.416 140.623L894.639 131.867M900.416 140.623H990.623M913.196 159.997L1009.8 159.998M999.882 149.979L990.623 140.623M999.882 149.979L1009.8 159.998M999.882 149.979L1093.17 149.981M720 140.623V131.868M807.32 131.867H894.639M807.32 131.867L720 131.868M807.32 131.867L804.61 123.655M894.639 131.867L889.22 123.655M894.639 131.867L981.958 131.868M990.623 140.623L981.958 131.868M990.623 140.623L1080.83 140.624M802.064 115.936H884.129M802.064 115.936L799.667 108.668M802.064 115.936H720M802.064 115.936L804.61 123.655M884.129 115.936L879.334 108.668H799.667M884.129 115.936L889.22 123.655M884.129 115.936H966.192M799.667 108.668H720M799.667 108.668L797.405 101.812M720 115.936V108.668M720 115.936V123.655M804.61 123.655H889.22M804.61 123.655H720M889.22 123.655H973.83M966.192 115.936L959 108.669M966.192 115.936L973.83 123.655M966.192 115.936H1048.26M797.405 101.812H874.81M797.405 101.812H720M797.405 101.812L795.269 95.3361M874.81 101.812L879.334 108.669H959M874.81 101.812L870.538 95.3361M874.81 101.812H952.217M959 108.669L952.217 101.812M793.247 89.2053H866.495M793.247 89.2053L791.333 83.3972M793.247 89.2053H720M793.247 89.2053L795.269 95.3347M866.495 89.2053L862.663 83.3972M866.495 89.2053L870.538 95.3347M866.495 89.2053H939.743M791.333 83.3972H862.663M791.333 83.3972H720M791.333 83.3972L789.513 77.8849M720 89.2053V83.3972M720 89.2053V95.3361M862.663 83.3972L859.026 77.8849M862.663 83.3972H933.995M939.743 89.2053L933.995 83.3972M939.743 89.2053L945.808 95.3361M939.743 89.2053H1012.99M720 83.3972V77.8863M789.513 77.8849H859.026M789.513 77.8849L720 77.8863M789.513 77.8849L787.997 73.2882L787.786 72.6482M859.026 77.8849L855.571 72.6482M859.026 77.8849L928.539 77.8863M933.995 83.3972L928.539 77.8863M933.995 83.3972H1005.32M786.142 67.6643H852.283M786.142 67.6643L784.575 62.9156M786.142 67.6643H720M786.142 67.6643L787.786 72.6482M852.283 67.6643L849.15 62.9156M852.283 67.6643L855.571 72.6482M852.283 67.6643H918.424M784.575 62.9156H849.15M784.575 62.9156H720M784.575 62.9156L783.082 58.3875M720 67.6643V62.9156M720 67.6643V72.6482M787.786 72.6482H855.571M787.786 72.6482H720M849.15 62.9156L846.163 58.3875M849.15 62.9156H913.726M855.571 72.6482H923.355M918.424 67.6643L913.726 62.9156M918.424 67.6643L923.355 72.6482M918.424 67.6643H984.565M720 62.9156H655.426M720 62.9156V58.3875M783.082 58.3875H846.163M783.082 58.3875H720M783.082 58.3875L781.655 54.0637M846.163 58.3875L843.311 54.0637M846.163 58.3875H909.244M913.726 62.9156L912.584 61.7648L909.244 58.3875M913.726 62.9156H978.301M780.292 49.9321H840.584M780.292 49.9321L778.988 45.978M780.292 49.9321L720 49.9308M780.292 49.9321L781.655 54.0637M840.584 49.9321L838.295 46.4621L837.976 45.978M840.584 49.9321L843.311 54.0637M840.584 49.9321L900.876 49.9308M778.988 45.978L778.83 45.4954L777.739 42.192M778.988 45.978H837.976M778.988 45.978H720M720 49.9308L659.709 49.9321L658.346 54.0637M720 49.9308V45.978M720 49.9308V54.0637M781.655 54.0637H843.311M781.655 54.0637H720M837.976 45.978L837.027 44.5395L836.714 44.0649L836.402 43.593L835.478 42.192M837.976 45.978H896.963M843.311 54.0637H904.965M900.876 49.9308L896.963 45.978M900.876 49.9308L903.925 53.0136L904.965 54.0637M900.876 49.9308L961.168 49.9321M777.739 42.192H835.478M777.739 42.192H720M777.739 42.192L777.435 41.2697L776.836 39.4547L776.542 38.562M720 45.978H661.013M720 45.978V42.192M835.478 42.192L834.568 40.8126L834.269 40.3582L833.084 38.562M835.478 42.192H893.217M896.963 45.978L893.217 42.192M896.963 45.978L955.952 45.9794M775.394 35.0812H830.787M775.394 35.0812L774.291 31.7375M775.394 35.0812H720M775.394 35.0812L775.819 36.3691L775.963 36.8034L776.105 37.2404L776.395 38.1196L776.542 38.5633M830.787 35.0812L829.124 32.5603L828.581 31.7375M830.787 35.0812L833.084 38.5633M830.787 35.0812H886.181M774.291 31.7375H828.581M774.291 31.7375H720M774.291 31.7375L773.231 28.5242M720 35.0812V31.7375M720 35.0812V38.5633M828.581 31.7375L827.247 29.714L826.984 29.3161L826.723 28.9195L826.462 28.5242M828.581 31.7375H882.872M886.181 35.0812L884.097 32.9757L883.687 32.5603L883.278 32.1489L882.872 31.7375M886.181 35.0812L889.188 38.1196L889.625 38.5633M886.181 35.0812L941.572 35.0825M720 31.7375V28.5255M773.231 28.5242H826.462M773.231 28.5242L720 28.5255M773.231 28.5242L772.211 25.4346M826.462 28.5242L824.424 25.4346M826.462 28.5242L879.692 28.5255M882.872 31.7375L881.266 30.1147L880.87 29.7154L880.476 29.3161L879.692 28.5255M882.872 31.7375L937.161 31.7388M771.231 22.4606H822.462M771.231 22.4606L770.286 19.5969M771.231 22.4606H720M771.231 22.4606L772.211 25.4346M770.286 19.5969L820.572 19.5983M770.286 19.5969L720 19.5983M770.286 19.5969L769.376 16.8381M720 22.4606V19.5983M720 22.4606V25.4346M772.211 25.4346H824.424M772.211 25.4346H720M822.462 22.462L822.703 22.8277L824.175 25.0568L824.424 25.4346M822.462 22.462L820.572 19.5983M822.462 22.462H873.692M824.424 25.4346H876.635M820.572 19.5983L819.881 18.5509L819.654 18.2054L819.426 17.8612L818.752 16.8381M820.572 19.5983H870.858M873.692 22.462L870.858 19.5983M873.692 22.462L874.418 23.1947L875.519 24.3066L876.635 25.436M873.692 22.462H924.924M720 19.5983V16.8367H670.625M769.376 16.8381H818.752M769.376 16.8381H720V14.176M769.376 16.8381L768.498 14.1747M818.752 16.8381L818.528 16.4993L817.866 15.495L817.646 15.1629L817.429 14.8321L817.212 14.5028L816.996 14.176M818.752 16.8381H868.127M870.858 19.5983L868.127 16.8381M870.858 19.5983H921.143M767.651 11.6068H815.302M767.651 11.6068L766.832 9.12624M767.651 11.6068H720M767.651 11.6068L768.498 14.1747M815.302 11.6068L815.093 11.2922L814.679 10.6656L814.475 10.3564L814.067 9.73797L813.866 9.43143L813.664 9.12624M815.302 11.6068L816.141 12.88L816.353 13.2027L816.781 13.8493L816.996 14.176M815.302 11.6068H862.951M766.832 9.12624L766.733 8.82104L766.632 8.51854L766.532 8.21738L766.042 6.72905M766.832 9.12624H813.664M766.832 9.12624H720M720 11.6068H672.35M720 11.6068V9.12624M720 11.6068V14.176M768.498 14.1747L816.996 14.176M768.498 14.1747L720 14.176M813.664 9.12624H860.496M813.664 9.12624L813.263 8.51854L813.064 8.21738L812.867 7.91756L812.278 7.02349L812.082 6.72771M816.996 14.176H865.493M862.951 11.6068L861.101 9.73797L860.496 9.12624M862.951 11.6068L864.529 13.2013L865.493 14.176M862.951 11.6068L910.6 11.6081M766.042 6.72905L812.082 6.72771M766.042 6.72905H720M720 9.12624V6.72905M860.496 9.12624L907.328 9.12758M860.496 9.12624L858.709 7.32062L858.123 6.72905M812.082 6.72771L858.123 6.72905M1362.24 256.554H1490.69M1362.24 256.554L1333.35 239.037M1362.24 256.554H1233.79M1362.24 256.554L1393.98 275.801M1490.69 256.554L1456.01 239.037M1490.69 256.554L1528.78 275.801M1490.69 256.554H1619.14M1333.35 239.037H1456.01M1333.35 239.037H1210.68M1333.35 239.037L1306.95 223.028M1233.79 256.554H1105.34M1233.79 256.554L1210.68 239.037M1233.79 256.554L1259.19 275.801M1393.98 275.801H1528.78M1393.98 275.801L1429.03 297.052M1393.98 275.801H1259.19M1456.01 239.037L1424.34 223.028M1456.01 239.037H1578.68M1528.78 275.801L1570.83 297.052M1528.78 275.801H1663.57M1619.14 256.554L1578.68 239.037M1619.14 256.554L1663.57 275.801M1619.14 256.554H1686.82M1210.68 239.037L1189.56 223.028M1306.95 223.028H1424.34M1306.95 223.028H1189.56M1306.95 223.028L1282.73 208.341M1424.34 223.028L1395.27 208.341M1424.34 223.028H1541.72M1578.68 239.037L1541.72 223.028M1578.68 239.037H1686.82M1260.42 194.819H1368.5M1260.42 194.819L1239.82 182.327M1260.42 194.819H1152.34M1260.42 194.819L1282.73 208.341M1368.5 194.819L1343.78 182.327M1368.5 194.819L1395.27 208.341M1368.5 194.819H1476.59M1239.82 182.327H1343.78M1239.82 182.327H1135.86M1239.82 182.327L1220.73 170.753M1152.34 194.819H1044.25M1152.34 194.819L1135.86 182.327M1152.34 194.819L1170.18 208.341M1282.73 208.341H1395.27M1282.73 208.341H1170.18M1343.78 182.327L1320.87 170.753M1343.78 182.327H1447.75M1395.27 208.341H1507.82M1476.59 194.819L1447.75 182.327M1476.59 194.819L1507.82 208.341M1476.59 194.819H1584.67M1135.86 182.327H1031.89M1135.86 182.327L1120.58 170.753M1220.73 170.753H1320.87M1220.73 170.753H1120.58M1220.73 170.753L1202.99 159.998M1320.87 170.753L1299.59 159.998M1320.87 170.753H1421.02M1447.75 182.327L1421.02 170.753M1447.75 182.327L1551.71 182.328M1186.46 149.981H1279.77M1186.46 149.981L1171.04 140.624M1186.46 149.981H1093.17M1186.46 149.981L1202.99 159.998M1279.77 149.981L1261.24 140.624M1279.77 149.981L1299.59 159.998M1279.77 149.981H1373.06M1171.04 140.624H1261.24M1171.04 140.624H1080.83M1171.04 140.624L1156.6 131.868M1093.17 149.981L1080.83 140.624M1093.17 149.981L1106.4 159.998M1202.99 159.998H1299.59M1202.99 159.998H1106.4M1261.24 140.624L1243.91 131.868M1261.24 140.624H1351.46M1299.59 159.998H1396.19M1373.06 149.981L1351.46 140.624M1373.06 149.981L1396.19 159.998M1373.06 149.981L1466.35 149.982M1080.83 140.624L1069.28 131.868M1156.6 131.868H1243.91M1156.6 131.868H1069.28M1156.6 131.868L1143.05 123.655M1243.91 131.868L1227.66 123.655M1243.91 131.868H1331.24M1351.46 140.624L1331.24 131.868M1351.46 140.624L1441.66 140.626M1130.32 115.936H1212.38M1130.32 115.936L1118.34 108.668M1130.32 115.936H1048.26M1130.32 115.936L1143.05 123.655M1212.38 115.936L1198 108.668H1118.34M1212.38 115.936L1227.66 123.655M1212.38 115.936H1294.45M1118.34 108.668H1038.67M1118.34 108.668L1107.03 101.812M1048.26 115.936L1038.67 108.668M1048.26 115.936L1058.44 123.655M1143.05 123.655H1227.66M1143.05 123.655H1058.44M1227.66 123.655H1312.26M1294.45 115.936L1277.67 108.669M1294.45 115.936L1312.26 123.655M1294.45 115.936L1376.52 115.937M1038.67 108.668H959M1107.03 101.812H1184.43M1107.03 101.812H1029.62M1107.03 101.812L1096.34 95.3361M1184.43 101.812L1198 108.669H1277.67M1184.43 101.812L1171.62 95.3361M1184.43 101.812H1261.83M1277.67 108.669L1261.83 101.812M1086.24 89.2053H1159.48M1086.24 89.2053L1076.66 83.3972M1086.24 89.2053H1012.99M1086.24 89.2053L1096.34 95.3347M1159.48 89.2053L1147.98 83.3972M1159.48 89.2053L1171.62 95.3347M1159.48 89.2053H1232.73M1076.66 83.3972H1147.98M1076.66 83.3972H1005.32M1076.66 83.3972L1067.57 77.8849M1012.99 89.2053L1011.03 87.7264L1005.32 83.3972M1012.99 89.2053L1021.08 95.3361M1147.98 83.3972L1137.08 77.8849M1147.98 83.3972H1219.32M1232.73 89.2053L1219.32 83.3972M1232.73 89.2053L1246.88 95.3361M1232.73 89.2053H1305.97M1005.32 83.3972L998.052 77.8863M1067.57 77.8849H1137.08M1067.57 77.8849L998.052 77.8863M1067.57 77.8849L1058.93 72.6482M1137.08 77.8849L1126.71 72.6482M1137.08 77.8849L1206.59 77.8863M1219.32 83.3972L1206.59 77.8863M1219.32 83.3972L1290.65 83.3986M1050.71 67.6643H1116.85M1050.71 67.6643L1042.88 62.9156M1050.71 67.6643H984.565M1050.71 67.6643L1058.93 72.6482M1116.85 67.6643L1107.45 62.9156M1116.85 67.6643L1126.71 72.6482M1116.85 67.6643H1182.99M1042.88 62.9156H1107.45M1042.88 62.9156H978.301M1042.88 62.9156L1035.41 58.3875M984.565 67.6643L978.301 62.9156M984.565 67.6643L991.14 72.6482M1058.93 72.6482H1126.71M1058.93 72.6482H991.14M1107.45 62.9156L1098.48 58.3875M1107.45 62.9156H1172.02M1126.71 72.6482H1194.49M1182.99 67.6643L1172.02 62.9156M1182.99 67.6643L1194.49 72.6482M1182.99 67.6643H1249.13M978.301 62.9156L972.325 58.3875M1035.41 58.3875H1098.48M1035.41 58.3875H972.325M1035.41 58.3875L1028.27 54.065M1098.48 58.3875L1089.93 54.065M1098.48 58.3875H1161.56M1172.02 62.9156L1161.56 58.3875M1172.02 62.9156H1236.6M1021.46 49.9335L1022.29 50.439L1023.14 50.9499L1028.27 54.065M1021.46 49.9335L1081.75 49.9321M1021.46 49.9335L1014.94 45.9794M1021.46 49.9335L961.168 49.9321M1028.27 54.065H1089.93M1028.27 54.065L966.621 54.0637M1081.75 49.9321L1073.93 45.9794M1081.75 49.9321L1089.93 54.065M1081.75 49.9321H1142.04M1014.94 45.9794H1073.93M1014.94 45.9794H955.952M1014.94 45.9794L1008.7 42.1934M961.168 49.9321L955.952 45.9794M961.168 49.9321L963.864 51.9744L966.621 54.0637M1073.93 45.9794L1066.43 42.1934M1073.93 45.9794H1132.91M1089.93 54.065L1151.59 54.0637M1142.04 49.9321L1132.91 45.9794M1142.04 49.9321L1151.59 54.0637M1142.04 49.9321H1202.34M955.952 45.9794L950.956 42.192M1008.7 42.1934H1066.43M1008.7 42.1934L950.956 42.192M1008.7 42.1934L1007.17 41.2697L1002.71 38.562M1066.43 42.1934L1063.7 40.8126L1062.8 40.3582L1059.25 38.5647L1052.36 35.0825M1066.43 42.1934L1124.17 42.192M1132.91 45.9794L1124.17 42.192M1132.91 45.9794H1191.91M996.966 35.0825H1052.36M996.966 35.0825L991.452 31.7388M996.966 35.0825H941.572M996.966 35.0825L1002.71 38.5647M1052.36 35.0825L1048.19 32.9771L1045.74 31.7402M1052.36 35.0825H1107.76M991.452 31.7388L1045.74 31.7402M991.452 31.7388H937.161M991.452 31.7388L986.806 28.9208L986.154 28.5255M941.572 35.0825L938.249 32.5603L937.161 31.7388M941.572 35.0825L943.275 36.3691L946.168 38.562M1045.74 31.7402L1039.38 28.5255M1045.74 31.7402L1100.03 31.7388M1107.76 35.0825L1100.03 31.7388M1107.76 35.0825L1115.8 38.5633M1107.76 35.0825H1163.15M937.161 31.7388L932.924 28.5242M986.154 28.5255H1039.38M986.154 28.5255L932.924 28.5242M986.154 28.5255L981.058 25.4346M1039.38 28.5255L1033.27 25.4346M1039.38 28.5255H1092.62M1100.03 31.7388L1095.36 29.7154L1094.44 29.3161L1092.62 28.5255M1100.03 31.7388H1154.32M976.154 22.462H1027.38M976.154 22.462L974.957 21.736L971.43 19.5983M976.154 22.462H924.924M976.154 22.462L977.362 23.1961L979.815 24.683L981.058 25.436M1027.38 22.462L1021.72 19.5996M1027.38 22.462L1029.57 23.5658L1031.04 24.3079L1033.27 25.4373M1027.38 22.462L1078.62 22.4633M924.924 22.462L921.61 19.9492L921.143 19.5983M924.924 22.462L925.405 22.8277L925.891 23.1947L926.377 23.5631L928.846 25.4346M1021.72 19.5996H971.43M1021.72 19.5996L1019.64 18.5523L1018.28 17.8626L1016.25 16.8394M1021.72 19.5996H1072M1078.62 22.4633L1072 19.5983M1078.62 22.4633L1082.87 24.3066L1083.74 24.6817L1085.48 25.4346M1078.62 22.4633L1129.85 22.462M971.43 19.5996H921.143M971.43 19.5996L968.001 17.5197L966.878 16.8394M966.878 16.8394H1016.25M966.878 16.8394L917.503 16.8381M966.878 16.8394L962.488 14.176M1016.25 16.8394L1013.6 15.495L1012.94 15.1629L1010.98 14.176M1016.25 16.8394L1065.63 16.8381M958.251 11.6081H1005.9M958.251 11.6081L955.676 10.0485L954.159 9.12758M958.251 11.6081H910.6M958.251 11.6081L962.488 14.176M1005.9 11.6081L1002.2 9.73931L1001.6 9.43277L1000.99 9.12758M1005.9 11.6081L1008.42 12.8813L1010.98 14.1774M1005.9 11.6081H1053.55M954.159 9.12758H1000.99M954.159 9.12758L952.166 7.91756L951.181 7.32196L950.692 7.02618L950.207 6.7304M954.159 9.12758H907.328M910.6 11.6081L908.136 9.73797L907.328 9.12758M910.6 11.6081L913.991 14.176M962.488 14.176H1010.98M962.488 14.176H913.991M1000.99 9.12758H1047.82M1000.99 9.12758L996.247 6.7304M1053.55 11.6081L1049.24 9.73797L1047.82 9.12758M1053.55 11.6081L1058.73 13.8493L1059.48 14.176M1053.55 11.6081L1101.2 11.6068M950.207 6.7304H996.247M950.207 6.7304L904.165 6.72771M907.328 9.12758L905.732 7.91622L904.554 7.02349L904.165 6.72771M1047.82 9.12758L1094.65 9.12624M1047.82 9.12758L1042.29 6.72905M996.247 6.7304L1042.29 6.72905M996.247 6.7304L994.508 5.85112L991.661 4.41254M1655.67 182.328H1551.71M1655.67 182.328L1621.32 170.754M1655.67 182.328H1686.82M1655.67 182.328L1686.82 192.821M1551.71 182.328L1521.17 170.753M1551.71 182.328L1584.67 194.819M1621.32 170.754L1589.39 160M1621.32 170.754L1521.17 170.753M1621.32 170.754L1686.82 170.753M1686.82 182.328V170.753M1686.82 182.328V192.821M1686.82 192.821V194.819M1559.65 149.982H1652.94M1559.65 149.982L1531.87 140.626M1559.65 149.982H1466.35M1559.65 149.982L1589.39 160M1652.94 149.982L1622.08 140.626M1652.94 149.982L1685.99 160M1652.94 149.982H1686.82M1531.87 140.626H1622.08M1531.87 140.626H1441.66M1531.87 140.626L1505.87 131.869M1466.35 149.982L1441.66 140.626M1466.35 149.982L1492.79 159.998M1589.39 160H1685.99M1589.39 160L1492.79 159.998M1622.08 140.626L1593.19 131.869M1622.08 140.626H1686.82M1685.99 160L1686.82 159.998M1685.99 160L1686.82 160.252M1686.82 149.982V140.626M1686.82 149.982V159.998M1441.66 140.626L1418.56 131.868M1505.87 131.869H1593.19M1505.87 131.869L1418.56 131.868M1505.87 131.869L1481.49 123.656M1593.19 131.869L1566.1 123.656M1593.19 131.869L1680.51 131.868M1686.82 140.626V133.608M1458.57 115.937H1540.64M1458.57 115.937L1437 108.669M1458.57 115.937H1376.52M1458.57 115.937L1481.49 123.656M1540.64 115.937L1516.66 108.669M1540.64 115.937L1566.1 123.656M1540.64 115.937H1622.7M1437 108.669H1516.66M1437 108.669H1357.33L1339.25 101.812M1437 108.669L1416.65 101.814M1376.52 115.937L1357.33 108.668H1277.67M1376.52 115.937L1396.89 123.655M1481.49 123.656H1566.1M1481.49 123.656L1396.89 123.655M1516.66 108.669L1494.05 101.814M1516.66 108.669L1596.34 108.67M1566.1 123.656L1650.71 123.655M1622.7 115.937L1596.34 108.67M1622.7 115.937L1650.71 123.655M1622.7 115.937L1686.82 115.936M1416.65 101.814H1494.05M1416.65 101.814L1339.25 101.812M1416.65 101.814L1397.42 95.3361M1494.05 101.814L1472.69 95.3361M1494.05 101.814L1571.46 101.812M1596.34 108.67L1571.46 101.812M1379.22 89.2053H1452.47M1379.22 89.2053L1361.98 83.3972M1379.22 89.2053H1305.97M1379.22 89.2053L1397.42 95.3347M1452.47 89.2053L1433.31 83.3972M1452.47 89.2053L1472.69 95.3347M1452.47 89.2053H1525.73M1361.98 83.3972H1433.31M1361.98 83.3972L1290.65 83.3986M1361.98 83.3972L1345.62 77.8863M1305.97 89.2053L1290.65 83.3986M1305.97 89.2053L1322.15 95.3361M1433.31 83.3972L1415.13 77.8863M1433.31 83.3972L1504.64 83.3986M1525.73 89.2053L1504.64 83.3986M1525.73 89.2053L1547.96 95.3361M1525.73 89.2053L1598.97 89.2067M1290.65 83.3986L1276.1 77.8863M1345.62 77.8863H1415.13M1345.62 77.8863H1276.1M1345.62 77.8863L1330.07 72.6482M1415.13 77.8863L1397.85 72.6482M1415.13 77.8863H1484.64M1504.64 83.3986L1484.64 77.8863M1504.64 83.3986H1575.97M1315.28 67.6643H1381.41M1315.28 67.6643L1301.17 62.9156M1315.28 67.6643H1249.13M1315.28 67.6643L1330.07 72.6482M1381.41 67.6643L1365.75 62.9156M1381.41 67.6643L1397.85 72.6482M1381.41 67.6643H1447.56M1301.17 62.9156H1365.75M1301.17 62.9156H1236.6M1301.17 62.9156L1287.73 58.3875M1249.13 67.6643L1236.6 62.9156M1249.13 67.6643L1262.28 72.6482M1330.07 72.6482H1397.85M1330.07 72.6482H1262.28M1365.75 62.9156L1350.81 58.3875M1365.75 62.9156H1430.32M1397.85 72.6482H1465.64M1447.56 67.6643L1430.32 62.9156M1447.56 67.6643L1465.64 72.6482M1447.56 67.6643H1513.69M1236.6 62.9156L1224.65 58.3875M1287.73 58.3875H1350.81M1287.73 58.3875H1224.65M1287.73 58.3875L1274.9 54.065M1350.81 58.3875L1336.55 54.065M1350.81 58.3875H1413.89M1430.32 62.9156L1413.89 58.3875M1430.32 62.9156H1494.9M1262.63 49.9335H1322.91M1262.63 49.9335L1250.89 45.9794M1262.63 49.9335L1202.34 49.9321M1262.63 49.9335L1274.9 54.065M1322.91 49.9335L1309.87 45.9794M1322.91 49.9335L1336.55 54.065M1322.91 49.9335L1383.21 49.9321M1250.89 45.9794H1309.87M1250.89 45.9794H1191.91M1250.89 45.9794L1239.65 42.1934M1202.34 49.9321L1191.91 45.9794M1202.34 49.9321L1213.24 54.0637M1274.9 54.065H1336.55M1274.9 54.065L1213.24 54.0637M1309.87 45.9794L1297.38 42.1934M1309.87 45.9794H1368.87M1336.55 54.065L1398.2 54.0637M1383.21 49.9321L1368.87 45.9794M1383.21 49.9321L1398.2 54.0637M1383.21 49.9321L1443.5 49.9308M1191.91 45.9794L1181.91 42.1934M1239.65 42.1934H1297.38M1239.65 42.1934H1181.91M1239.65 42.1934L1228.88 38.5647M1297.38 42.1934L1285.42 38.5647M1297.38 42.1934H1355.13M1368.87 45.9794L1355.13 42.1934M1368.87 45.9794L1427.85 45.978M1218.54 35.0825H1273.93M1218.54 35.0825L1208.62 31.7388M1218.54 35.0825H1163.15M1218.54 35.0825L1228.88 38.5647M1273.93 35.0825L1262.91 31.7388M1273.93 35.0825L1285.42 38.5647M1273.93 35.0825H1329.33M1208.62 31.7388H1262.91M1208.62 31.7388H1154.32M1208.62 31.7388L1199.07 28.5255M1163.15 35.0825L1154.32 31.7388M1163.15 35.0825L1172.33 38.5633M1228.88 38.5647H1285.42M1262.91 31.7388L1252.3 28.5255L1243.37 25.8164L1242.11 25.436M1262.91 31.7388H1317.2M1285.42 38.5647H1341.96M1329.33 35.0825L1317.2 31.7388M1329.33 35.0825L1341.96 38.5647M1329.33 35.0825L1384.72 35.0812M1154.32 31.7388L1145.85 28.5255M1199.07 28.5255H1145.85M1199.07 28.5255L1189.9 25.436M1317.2 31.7388L1305.54 28.5269M1317.2 31.7388L1371.49 31.7375H1425.78M1181.07 22.462H1232.31M1181.07 22.462L1172.57 19.5983M1181.07 22.462H1129.85M1181.07 22.462L1183.25 23.1961L1184.35 23.5645L1189.9 25.436M1232.31 22.462L1222.86 19.5996M1232.31 22.462L1242.11 25.436M1232.31 22.462L1283.53 22.4633M1129.85 22.462L1122.29 19.5983M1129.85 22.462L1137.7 25.4346M1189.9 25.436H1242.11M1189.9 25.436H1137.7M1222.86 19.5996H1172.57M1222.86 19.5996L1213.76 16.8394M1222.86 19.5996H1273.14M1242.11 25.436H1294.33M1283.53 22.4633L1273.14 19.5996M1283.53 22.4633L1294.33 25.436M1283.53 22.4633H1334.77M1172.57 19.5996H1122.29M1172.57 19.5996L1164.39 16.8394M1164.39 16.8394H1213.76M1164.39 16.8394H1115M1164.39 16.8394L1156.48 14.1774M1213.76 16.8394L1204.98 14.1774M1213.76 16.8394H1263.14M1273.14 19.5996L1263.14 16.8394M1273.14 19.5996H1323.44M1148.84 11.6081H1196.51M1148.84 11.6081L1141.49 9.12624M1148.84 11.6081L1101.2 11.6068M1148.84 11.6081L1156.48 14.1747M1196.51 11.6081L1190.33 9.73797L1189.33 9.43143L1188.32 9.12624M1196.51 11.6081L1204.98 14.1747M1196.51 11.6081L1244.15 11.6068M1141.49 9.12624H1188.32M1141.49 9.12624H1094.65M1101.2 11.6068L1094.65 9.12624M1101.2 11.6068L1107.97 14.176M1188.32 9.12624H1235.15M1188.32 9.12624L1180.41 6.72905M1244.15 11.6068L1235.15 9.12624M1244.15 11.6068L1253.47 14.176M1244.15 11.6068H1291.8M1094.65 9.12624L1089.89 7.32062L1088.33 6.72905M1235.15 9.12624H1281.99M1235.15 9.12624L1226.45 6.7304M1180.41 6.72905L1226.45 6.7304M1180.41 6.72905L1177.51 5.85246L1172.76 4.41388M1180.41 6.72905L1134.36 6.7304L1088.33 6.72905M1672.22 89.2067L1647.31 83.3986M1672.22 89.2067H1598.97M1672.22 89.2067L1686.82 92.6135M1672.22 89.2067H1686.82M1647.31 83.3986H1575.97M1647.31 83.3986L1623.67 77.8863M1647.31 83.3986H1686.82M1598.97 89.2067L1575.97 83.3986M1598.97 89.2067L1623.23 95.3361M1686.82 92.6135V89.2067M1686.82 92.6135V95.3361M1686.82 89.2067V83.3986M1575.97 83.3986L1554.16 77.8863M1623.67 77.8863L1601.2 72.6482M1623.67 77.8863H1554.16M1623.67 77.8863H1686.82M1686.82 83.3986V77.8863M1579.84 67.6643H1645.97M1579.84 67.6643L1559.47 62.9156M1579.84 67.6643H1513.69M1579.84 67.6643L1601.2 72.6482M1645.97 67.6643L1624.05 62.9156M1645.97 67.6643L1668.99 72.6482M1645.97 67.6643H1686.82M1559.47 62.9156H1624.05M1559.47 62.9156H1494.9M1559.47 62.9156L1540.06 58.3875M1513.69 67.6643L1494.9 62.9156M1513.69 67.6643L1533.42 72.6496M1601.2 72.6482H1668.99M1601.2 72.6482L1533.42 72.6496M1624.05 62.9156L1603.14 58.3875M1624.05 62.9156H1686.82M1668.99 72.6482L1686.82 76.5109M1668.99 72.6482L1686.82 72.6496M1686.82 67.6643L1687.32 67.6656M1686.82 67.6643V62.9156M1686.82 67.6643V72.6496M1494.9 62.9156L1476.98 58.3888M1540.06 58.3875H1603.14M1540.06 58.3875L1476.98 58.3888M1540.06 58.3875L1521.52 54.0637M1603.14 58.3875L1583.17 54.0637M1603.14 58.3875L1666.22 58.3888M1686.82 62.9156V62.554M1503.8 49.9321H1564.08M1503.8 49.9321L1486.84 45.978M1503.8 49.9321L1443.5 49.9308M1503.8 49.9321L1521.52 54.0637M1564.08 49.9321L1545.83 45.978M1564.08 49.9321L1583.17 54.0637M1564.08 49.9321L1624.38 49.9308L1604.82 45.978M1486.84 45.978H1545.83M1486.84 45.978H1427.85M1486.84 45.978L1470.6 42.192M1443.5 49.9308L1427.85 45.978M1443.5 49.9308L1459.86 54.065M1521.52 54.0637H1583.17M1521.52 54.0637L1459.86 54.065M1545.83 45.978L1528.35 42.192M1545.83 45.978H1604.82M1583.17 54.0637L1644.82 54.065M1427.85 45.978L1412.87 42.1934M1470.6 42.192H1528.35M1470.6 42.192L1412.87 42.1934M1470.6 42.192L1455.05 38.5633M1528.35 42.192L1511.58 38.5633M1528.35 42.192L1586.08 42.1934M1604.82 45.978L1586.08 42.1934M1604.82 45.978L1663.8 45.9794M1440.11 35.0812H1495.5M1440.11 35.0812L1425.78 31.7375M1440.11 35.0812H1384.72M1440.11 35.0812L1455.05 38.5633M1495.5 35.0812L1480.07 31.7375M1495.5 35.0812L1511.58 38.5633M1495.5 35.0812H1550.89M1425.78 31.7375H1480.07M1425.78 31.7375L1412 28.5242M1384.72 35.0812L1371.49 31.7402L1358.77 28.5269L1346.54 25.436M1384.72 35.0812L1398.5 38.5633M1455.05 38.5633H1511.58M1455.05 38.5633H1398.5M1480.07 31.7375L1465.22 28.5242M1480.07 31.7375H1534.36M1511.58 38.5633L1568.13 38.5647M1550.89 35.0812L1534.36 31.7402M1550.89 35.0812L1568.13 38.5647M1550.89 35.0812H1606.29M1412 28.5242L1358.77 28.5255H1305.54M1412 28.5242L1398.75 25.436M1386 22.4606H1437.23M1386 22.4606L1373.72 19.5969M1386 22.4606H1334.77M1386 22.4606L1398.75 25.4346M1373.72 19.5969L1424 19.5983M1373.72 19.5969L1323.44 19.5983M1373.72 19.5969L1361.89 16.8381M1437.23 22.462L1424 19.5983M1437.23 22.462L1450.96 25.4346M1437.23 22.462H1488.46M1424 19.5983L1411.26 16.8381M1424 19.5983H1474.29M1488.46 22.462L1474.29 19.5996M1488.46 22.462L1503.18 25.436M1488.46 22.462L1539.69 22.4633M1361.89 16.8381H1411.26M1361.89 16.8381L1312.51 16.8394M1361.89 16.8381L1350.46 14.1774H1301.97M1411.26 16.8381L1398.97 14.1747M1411.26 16.8381H1460.63M1339.45 11.6068H1387.1M1339.45 11.6068L1328.81 9.12624M1339.45 11.6068H1291.8M1339.45 11.6068L1350.46 14.1747H1398.97M1387.1 11.6068L1375.64 9.12624M1387.1 11.6068L1398.97 14.1747M1387.1 11.6068H1434.75M1328.81 9.12624H1375.64M1328.81 9.12624L1318.53 6.72905M1328.81 9.12624H1281.99M1291.8 11.6068L1281.99 9.12624M1291.8 11.6068L1301.97 14.176M1375.64 9.12624H1422.47M1375.64 9.12624L1364.58 6.72905M1398.97 14.1747L1447.46 14.176M1434.75 11.6068L1422.47 9.12624M1434.75 11.6068L1447.46 14.176M1434.75 11.6068H1482.41M1318.53 6.72905H1364.58M1318.53 6.72905L1308.59 4.41254M1318.53 6.72905L1272.5 6.7304M1281.99 9.12624L1272.5 6.7304M1422.47 9.12624H1469.31M1422.47 9.12624L1410.61 6.72905M1364.58 6.72905H1410.61M1661.68 35.0812L1642.94 31.7375M1661.68 35.0812H1606.29M1661.68 35.0812L1681.21 38.5633M1661.68 35.0812H1686.82M1642.94 31.7375H1588.65L1534.36 31.7402M1642.94 31.7375L1624.92 28.5242M1642.94 31.7375H1686.82M1606.29 35.0812L1588.65 31.7402L1571.69 28.5269L1555.38 25.436M1606.29 35.0812L1624.66 38.5647M1681.21 38.5633L1624.66 38.5647M1681.21 38.5633H1686.82M1681.21 38.5633L1686.82 39.5649M1686.82 35.0812V31.7375M1686.82 35.0812V38.5633M1624.92 28.5242L1678.15 28.5255M1624.92 28.5242H1571.69L1518.47 28.5255M1624.92 28.5242L1607.59 25.4346M1686.82 31.7375V29.9856M1590.92 22.4606H1642.16M1590.92 22.4606L1574.87 19.5969M1590.92 22.4606H1539.69M1590.92 22.4606L1607.59 25.4346M1574.87 19.5969L1625.15 19.5983M1574.87 19.5969L1524.58 19.5983M1574.87 19.5969L1559.38 16.8381M1607.59 25.4346H1659.81M1607.59 25.4346H1555.38M1642.16 22.462L1625.15 19.5983M1642.16 22.462L1659.81 25.4346M1642.16 22.462H1686.82M1625.15 19.5983L1608.76 16.8381M1625.15 19.5983H1675.43M1659.81 25.4346L1678.15 28.5255M1659.81 25.4346H1686.82M1686.82 22.462H1686.98M1686.82 22.462V21.4147M1686.82 22.462V25.4346M1559.38 16.8381H1608.76M1559.38 16.8381H1510.01M1559.38 16.8381L1544.45 14.1747M1608.76 16.8381L1592.95 14.1747M1608.76 16.8381H1658.14M1675.43 19.5983L1658.14 16.8381M1675.43 19.5983L1686.82 21.4147M1675.43 19.5983H1686.82M1530.05 11.6068H1577.7M1530.05 11.6068L1516.14 9.12624M1530.05 11.6068H1482.41M1530.05 11.6068L1544.45 14.1747M1577.7 11.6068L1562.97 9.12624M1577.7 11.6068L1592.95 14.1747M1577.7 11.6068H1625.35M1516.14 9.12624H1562.97M1516.14 9.12624L1502.69 6.72905M1516.14 9.12624H1469.31M1482.41 11.6068L1469.31 9.12624M1482.41 11.6068L1495.96 14.176M1544.45 14.1747H1592.95M1544.45 14.1747L1495.96 14.176M1562.97 9.12624H1609.81M1562.97 9.12624L1548.74 6.72905M1592.95 14.1747L1641.46 14.176M1625.35 11.6068L1609.81 9.12624M1625.35 11.6068L1641.46 14.176M1625.35 11.6068H1673M1502.69 6.72905H1548.74M1502.69 6.72905H1456.66M1502.69 6.72905L1489.71 4.41254M1469.31 9.12624L1456.66 6.72905M1609.81 9.12624H1656.64M1609.81 9.12624L1594.78 6.72905M1548.74 6.72905H1594.78M1641.46 14.176L1658.14 16.8381M1641.46 14.176H1686.82M1673 11.6068L1656.64 9.12624M1673 11.6068L1686.82 13.7015M1673 11.6068H1686.82M1656.64 9.12624L1640.83 6.72905M1656.64 9.12624H1686.82M1594.78 6.72905H1640.83M1594.78 6.72905L1580.26 4.41119M1658.14 16.8381H1686.82M1686.82 14.176V13.7015M1686.82 14.176V16.8381M1686.82 13.7015V11.6068M1686.82 11.6068V9.12624M1640.83 6.72905L1625.54 4.41119M1640.83 6.72905H1686.82M1686.82 9.12624V6.72905M1580.26 4.41119H1625.54M1686.82 6.72905H1686.86L1686.82 6.72367M1686.82 6.72905V6.72367M1686.82 21.4147V19.5983M1686.82 19.5983V16.8381M1510.01 16.8381L1495.96 14.176M1510.01 16.8381H1460.63M1510.01 16.8381L1524.58 19.5996M1495.96 14.176H1447.46M1678.15 28.5255L1686.82 29.9856M1678.15 28.5255L1686.82 28.5242M1686.82 25.4346V28.5242M1686.82 29.9856V28.5242M1447.46 14.176L1460.63 16.8381M1410.61 6.72905H1456.66M1410.61 6.72905L1399.14 4.41119M1460.63 16.8381L1474.29 19.5996M1456.66 6.72905L1444.43 4.41254M1399.14 4.41119L1444.43 4.40985M1474.29 19.5996H1524.58M1524.58 19.5996L1539.69 22.4633M1312.51 16.8394L1301.97 14.1774M1312.51 16.8394H1263.14M1312.51 16.8394L1323.44 19.5996M1301.97 14.1774H1253.47M1503.18 25.436H1450.96M1503.18 25.436L1518.47 28.5269M1503.18 25.436H1555.38M1539.69 22.4633L1555.38 25.436M1450.96 25.436L1465.22 28.5269M1450.96 25.436H1398.75M1465.22 28.5269H1518.47M1465.22 28.5269H1412M1398.75 25.436H1346.54M1518.47 28.5269L1534.36 31.7402M1346.54 25.436L1334.77 22.4633M1346.54 25.436H1294.33M1568.13 38.5647L1586.08 42.1934M1568.13 38.5647H1624.66M1624.66 38.5647L1643.82 42.1934M1586.08 42.1934H1643.82M1643.82 42.1934L1663.8 45.9794M1643.82 42.1934H1686.82M1686.82 38.5633V39.5649M1686.82 39.5649V42.1934M1663.8 45.9794L1684.67 49.9321M1663.8 45.9794H1686.82M1412.87 42.1934L1398.5 38.5633M1412.87 42.1934H1355.13M1686.82 42.1934H1687.13M1686.82 42.1934V45.9794M1398.5 38.5633L1341.96 38.5647M1644.82 54.065L1624.38 49.9335L1684.67 49.9321M1644.82 54.065L1666.22 58.3888M1644.82 54.065H1686.82M1684.67 49.9321L1686.82 50.3408M1684.67 49.9321L1686.82 49.9335M1686.82 45.9794V49.9308V50.3408M1686.82 50.3408L1687.34 50.439M1686.82 50.3408V54.065M1666.22 58.3888H1686.82M1666.22 58.3888L1686.82 62.554M1686.82 54.065V58.3888M1686.82 58.3888V62.554M1476.98 58.3888L1459.86 54.065M1476.98 58.3888L1413.89 58.3875M1459.86 54.065L1398.2 54.0637M1686.82 76.5109L1687.02 76.5525M1686.82 76.5109V72.6496M1686.82 76.5109V77.8863M1533.42 72.6496L1465.64 72.6482M1533.42 72.6496L1554.16 77.8863M1204.98 14.1774H1253.47M1204.98 14.1774H1156.48M1253.47 14.1774L1263.14 16.8394M1156.48 14.1774H1107.97M1226.45 6.7304H1272.5M1226.45 6.7304L1218.04 4.41254M1272.5 6.7304L1271.33 6.43596L1269.01 5.85246L1263.33 4.41388M1323.44 19.5996L1324.82 19.9505L1334.77 22.4633M1115 16.8394L1107.97 14.176M1115 16.8394L1065.63 16.8381M1115 16.8394L1122.29 19.5983M1294.33 25.436L1305.54 28.5269M1305.54 28.5269H1252.3H1199.07M1145.85 28.5255L1137.7 25.4346M1145.85 28.5255H1092.62M1341.96 38.5647L1355.13 42.1934M1181.91 42.1934L1172.33 38.562M1181.91 42.1934L1124.17 42.192M1228.88 38.562H1172.33M1172.33 38.562H1115.8M1398.2 54.0637L1413.89 58.3875M1224.65 58.3875L1213.24 54.0637M1224.65 58.3875H1161.56M1213.24 54.0637H1151.59M1465.64 72.6482L1484.64 77.8863M1484.64 77.8863H1554.16M1276.1 77.8863L1262.28 72.6482M1276.1 77.8863H1206.59M1262.28 72.6482H1194.49M1547.96 95.3361H1472.69M1547.96 95.3361L1571.46 101.812M1547.96 95.3361H1623.23M1623.23 95.3361L1648.87 101.812M1623.23 95.3361H1686.82M1472.69 95.3361H1397.42M1397.42 95.3361H1322.15M1571.46 101.812H1648.87M1648.87 101.812L1676 108.669M1648.87 101.812H1686.82M1686.82 95.3361V101.812M1596.34 108.668H1676M1676 108.668H1686.82M1676 108.668L1686.82 111.402M1339.25 101.812L1322.15 95.3361M1339.25 101.812H1261.83M1686.82 101.812V108.668M1322.15 95.3361H1246.88M1650.71 123.655L1680.51 131.868M1650.71 123.655H1686.82M1686.82 115.936V111.402M1686.82 115.936V123.655M1686.82 108.668V111.402M1680.51 131.868L1686.82 133.608M1680.51 131.868H1686.82M1686.82 123.655V131.868M1686.82 133.608V131.868M1418.56 131.868L1396.89 123.655M1418.56 131.868H1331.24M1396.89 123.655H1312.26M1686.82 159.998V160.252M1686.82 160.252V170.753M1492.79 159.998H1396.19M1492.79 159.998L1521.17 170.753M1010.98 14.176H1059.48M1059.48 14.176L1061 14.8321L1065.63 16.8381M1059.48 14.176H1107.97M1042.29 6.72905H1088.33M1042.29 6.72905L1036.94 4.41119M1065.63 16.8381L1072 19.5983M1088.33 6.72905L1086.01 5.85112L1082.21 4.41254M1036.94 4.41119L1082.21 4.40985M1072 19.5983H1122.29M917.503 16.8381L916.612 16.1632L913.991 14.176M917.503 16.8381H868.127M917.503 16.8381L921.143 19.5983M913.991 14.176H865.493M1085.48 25.4346H1033.27M1085.48 25.4346L1092.62 28.5255M1085.48 25.4346H1137.7M1033.27 25.4346H981.058M981.058 25.4346H928.846M932.924 28.5242L932.406 28.1316L931.888 27.7417L928.846 25.4346M932.924 28.5242L879.692 28.5255M928.846 25.4346H876.635M1115.8 38.562H1059.25H1002.71M1115.8 38.562L1124.17 42.192M1002.71 38.562H946.168M950.956 42.192L946.168 38.562M950.956 42.192H893.217M946.168 38.562H889.625M1151.59 54.0637L1161.56 58.3875M972.325 58.3875L966.621 54.0637M972.325 58.3875H909.244M966.621 54.0637H904.965M1194.49 72.6482L1206.59 77.8863M998.052 77.8863L991.14 72.6482M998.052 77.8863H928.539M991.14 72.6482H923.355M1246.88 95.3361H1171.62M1246.88 95.3361L1261.83 101.812M1171.62 95.3361H1096.34M1096.34 95.3361H1021.08M1029.62 101.812L1021.08 95.3361M1029.62 101.812H952.217M1029.62 101.812L1038.67 108.669M1021.08 95.3361H945.808M1312.26 123.655L1331.24 131.868M1069.28 131.868L1058.44 123.655M1069.28 131.868H981.958M1058.44 123.655H973.83M1396.19 159.998L1421.02 170.753M1421.02 170.753H1521.17M1120.58 170.753L1106.4 159.998M1120.58 170.753H1020.44M1106.4 159.998H1009.8M1507.82 208.341L1541.72 223.028M1507.82 208.341H1620.36M1584.67 194.819L1620.36 208.341M1584.67 194.819H1686.82M1620.36 208.341L1659.11 223.028M1620.36 208.341H1686.82M1686.82 194.819V208.341M1541.72 223.028H1659.11M1659.11 223.028H1686.82M1659.11 223.028L1686.82 233.528M1686.82 208.341V223.028M1686.82 239.037V233.528M1686.82 239.037V256.554M1189.56 223.028L1170.18 208.341M1189.56 223.028H1072.17M1686.82 223.028V233.528M1170.18 208.341H1057.63M1663.57 275.801L1686.82 285.868M1663.57 275.801H1686.82M1686.82 256.554V275.801M1570.83 297.052H1429.03M1570.83 297.052H1686.82M1686.82 285.868V275.801M1686.82 285.868V297.052M1429.03 297.052H1287.23M1686.82 297.052V297.127H-246.822V297.052H-130.838M1287.23 297.052L1259.19 275.801M1287.23 297.052H1145.42M1259.19 275.801H1124.39M865.493 14.176L865.816 14.5028L866.143 14.8321L866.469 15.1629L866.799 15.495L868.127 16.8381M858.123 6.72905L857.832 6.43461L857.256 5.85112L856.682 5.27165L856.397 4.98394L855.831 4.41119M858.123 6.72905L904.165 6.72771M904.165 6.72771L901.485 4.69622L901.107 4.41119M855.831 4.41119H901.107M720 14.176H671.503M876.635 25.4346L879.692 28.5255M720 28.5255V25.4346M720 25.4346L667.79 25.4333M833.084 38.562H889.625M833.084 38.562H776.542M889.625 38.562L893.217 42.192M776.542 38.562H720M720 42.192V38.562M720 42.192H662.262M720 38.562H663.459M904.965 54.0637L909.244 58.3875M720 58.3875V54.0637M720 58.3875H656.919M720 54.0637H658.346M923.355 72.6482L928.539 77.8863M720 77.8863V72.6482M720 77.8863H650.488M720 72.6482H652.215M945.808 95.3361H870.538M945.808 95.3361L952.217 101.812M870.538 95.3361H795.269M795.269 95.3361H720M720 101.812V95.3361M720 101.812H642.596M720 101.812V108.669M720 95.3361H644.732M973.83 123.655L981.958 131.868M720 131.868V123.655M720 131.868H632.681M720 123.655H635.391M1009.8 159.998L1020.44 170.753M1020.44 170.753L1031.89 182.327M1031.89 182.327L1044.25 194.819M1044.25 194.819L1057.63 208.341M720 170.753V159.998M720 170.753H619.855M720 170.753V182.327M720 159.998H623.402M1057.63 208.341H945.09M1057.63 208.341L1072.17 223.028M945.09 208.341L954.779 223.028M945.09 208.341H832.546M954.779 223.028H1072.17M954.779 223.028H837.39M832.546 208.341L837.39 223.028M832.546 208.341H720M837.39 223.028H720M1105.34 256.554L1124.39 275.801M720 223.028V208.341M720 223.028H602.611M720 208.341V194.819M720 208.341H607.455M1124.39 275.801H989.594M1124.39 275.801L1145.42 297.052M989.594 275.801L1003.61 297.052M989.594 275.801H854.798M1003.61 297.052H1145.42M1003.61 297.052H861.807M854.798 275.801L861.807 297.052M854.798 275.801H720M861.807 297.052H720M720 297.052V275.801M720 297.052H578.194M720 275.801V256.554M720 275.801H585.203M671.503 14.176L672.35 11.6068M671.503 14.176L671.394 14.5028L671.286 14.8321L671.178 15.1629L670.625 16.8381M673.959 6.72905H627.919M673.959 6.72905H720M673.959 6.72905L674.248 5.85112L674.345 5.56071L674.724 4.41119M627.919 6.72905H581.878M581.878 6.72905L535.836 6.72771M720 6.72905V4.40985M674.724 4.41119L720 4.40985M526.01 14.1747L477.514 14.176M526.01 14.1747L529.401 11.6068M526.01 14.1747L523.389 16.1632L522.498 16.8381M667.79 25.4333L666.77 28.5242M666.77 28.5242L720 28.5228M511.155 25.4346L513.624 23.5631L514.11 23.1947L514.596 22.8277L515.077 22.462M511.155 25.4346H458.943M511.155 25.4346L507.077 28.5255M664.607 35.0812L664.182 36.3691L663.751 37.6787L663.459 38.562M663.459 38.562L663.165 39.456L662.566 41.2711L662.262 42.192M662.262 42.192L661.172 45.4954L661.013 45.978M489.045 42.192L493.833 38.562M489.045 42.192L431.306 42.1907M493.833 38.562H437.293M658.346 54.0637H596.69M658.346 54.0637L656.919 58.3875M596.69 54.0637L593.838 58.3875M596.69 54.0637H535.036M593.838 58.3875H656.919M593.838 58.3875H530.757M535.036 54.0637L530.757 58.3875M535.036 54.0637H473.38M656.919 58.3875L655.426 62.9156M530.757 58.3875H467.676M652.215 72.6482L650.488 77.8863M441.949 77.8863L448.861 72.6482M441.949 77.8863L372.436 77.8849M448.861 72.6482L381.075 72.6469M644.732 95.3361H569.463M644.732 95.3361L642.596 101.812M569.463 95.3361H494.195M494.195 95.3361H418.925M410.379 101.812L418.925 95.3347M410.379 101.812L332.974 101.811M635.391 123.655L632.681 131.868M370.724 131.868L381.561 123.655M370.724 131.868H283.404M381.561 123.655H296.951M623.402 159.998L619.855 170.753M619.855 170.753L616.037 182.327M616.037 182.327L611.916 194.819M616.037 182.327H720M611.916 194.819L607.455 208.341M611.916 194.819H720M720 182.327V194.819M319.418 170.753L333.606 159.998M319.418 170.753H219.272M319.418 170.753L304.146 182.327M333.606 159.998H237.009M607.455 208.341H494.911M607.455 208.341L602.611 223.028M494.911 208.341L485.222 223.028M494.911 208.341H382.366M485.222 223.028H602.611M485.222 223.028H367.832M382.366 208.341L367.832 223.028M382.366 208.341H269.822M367.832 223.028H250.443M591.553 256.554L585.203 275.801M591.553 256.554H720M250.443 223.028L269.822 208.341M250.443 223.028H133.054M269.822 208.341L287.663 194.819M269.822 208.341H157.277M585.203 275.801H450.407M585.203 275.801L578.194 297.052M450.407 275.801L436.388 297.052M450.407 275.801H315.609M436.388 297.052H578.194M436.388 297.052H294.582M315.609 275.801L294.582 297.052M315.609 275.801H180.813M294.582 297.052H152.774M152.774 297.052L180.813 275.801M152.774 297.052H10.9695M180.813 275.801L206.21 256.554M180.813 275.801H46.017M423.747 16.8381H473.123M423.747 16.8381H374.372M477.514 14.176L481.75 11.6068M477.514 14.176L473.123 16.8381M481.75 11.6068H529.401M489.796 6.72905L535.836 6.72771M489.796 6.72905L492.673 4.98394L493.617 4.41119M473.123 16.8381H522.498M535.836 6.72771L536.224 6.43461L536.994 5.85112L538.894 4.41254M493.617 4.41119L538.894 4.40985M374.372 16.8381H324.996M463.847 22.462L463.245 22.8277L462.639 23.1947L460.805 24.3066L460.186 24.6817L458.943 25.4346M463.847 22.462H515.077M324.996 16.8381L332.021 14.176M324.996 16.8381H275.621M332.021 14.176H283.524M332.021 14.176L338.8 11.6068M458.943 25.4346L453.847 28.5255M400.617 28.5255H453.847M400.617 28.5255H347.386M453.847 28.5255L448.549 31.7388M453.847 28.5255H507.077M507.077 28.5255L502.84 31.7375L448.549 31.7388M347.386 28.5255L294.156 28.5242M448.549 31.7388L443.035 35.0812M294.156 28.5242L301.307 25.8151L302.309 25.4333M294.156 28.5242L240.924 28.5255M294.156 28.5242L285.677 31.7375M302.309 25.4333L310.155 22.462M302.309 25.4333L250.096 25.4346M437.293 38.562L431.306 42.1907M258.09 42.1907L267.667 38.5606M258.09 42.1907L200.351 42.192M258.09 42.1907L248.098 45.978M267.667 38.5606L211.125 38.562M411.727 54.0623L404.595 58.3861M411.727 54.0623H473.38M473.38 54.0623L467.676 58.3861M404.595 58.3861H467.676M381.075 72.6469L372.436 77.8849M163.897 77.8849L177.72 72.6469M163.897 77.8849L94.3842 77.8863M177.72 72.6469L109.934 72.6482M343.656 95.3347L332.974 101.811M343.656 95.3347H418.925M332.974 101.811L321.667 108.668M100.758 101.811L117.851 95.3361M100.758 101.811L23.3534 101.812M193.119 95.3361H117.851M117.851 95.3361H42.5806M296.951 123.655L283.404 131.868M21.4469 131.868L43.1197 123.655M21.4469 131.868H-65.8721M43.1197 123.655H-41.4903M237.009 159.998L219.272 170.753M304.146 182.327L287.663 194.819M-81.1654 170.753L-52.7864 159.998M-81.1654 170.753H-181.312M-52.7864 159.998H-149.384M157.277 208.341L133.054 223.028M133.054 223.028L106.651 239.037M-219.114 223.028L-180.357 208.341M-219.114 223.028H-246.822M-219.114 223.028L-246.822 233.528M-180.357 208.341H-246.822M46.017 275.801L10.9695 297.052M-130.838 297.052H10.9695M235.026 14.176L226.245 16.8381M235.026 14.176H283.524M235.026 14.176H186.529M226.245 16.8381H275.621M226.245 16.8381H176.87M283.524 14.176L291.151 11.6068M283.524 14.176L275.621 16.8381M186.529 14.176L176.87 16.8381M186.529 14.176H138.032M291.151 11.6068H338.8M305.632 6.72905L306.503 6.43461L312.51 4.41119M305.632 6.72905H351.672M351.672 6.72905L353.99 5.85112L357.788 4.41254M312.51 4.41119L357.788 4.40985M176.87 16.8381H127.494M258.925 22.462L256.749 23.1947L250.096 25.4346M258.925 22.462H310.155M127.494 16.8381L138.032 14.176M127.494 16.8381H78.1188M138.032 14.176H89.5347M138.032 14.176L148.2 11.6068M250.096 25.4346L240.924 28.5255M240.924 28.5255L231.388 31.7375M231.388 31.7375L221.463 35.0812M231.388 31.7375H285.677M221.463 35.0812L211.125 38.5633M221.463 35.0812H276.855M285.677 31.7375L276.855 35.0812M81.2326 28.5242L93.4619 25.4346M81.2326 28.5242L28.0025 28.5255M81.2326 28.5242L68.5166 31.7375M93.4619 25.4346L105.233 22.462M93.4619 25.4346H41.2509M276.855 35.0812L267.667 38.5633M211.125 38.562L200.351 42.192M200.351 42.192L189.111 45.978M189.111 45.978H248.098M27.1353 42.192L41.501 38.562M27.1353 42.192H-30.6028M27.1353 42.192L12.1486 45.978M41.501 38.562H-15.0406M165.106 54.0637H103.451M165.106 54.0637L152.27 58.3875M165.106 54.0637H226.76M226.76 54.0637L215.351 58.3875M103.451 54.0637L89.1892 58.3875M103.451 54.0637H41.7954M89.1892 58.3875H152.27M89.1892 58.3875H26.1082M41.7954 54.0637L26.1082 58.3875M41.7954 54.0637H-19.8591M152.27 58.3875L138.827 62.9156M152.27 58.3875H215.351M215.351 58.3875L203.402 62.9156M26.1082 58.3875H-36.9728M138.827 62.9156H203.402M-36.9728 58.3875L-19.8591 54.0637M-36.9728 58.3875H-100.054M-36.9728 58.3875L-54.8972 62.9156M-19.8591 54.0637L-3.50101 49.9308M-19.8591 54.0637H-81.5136M109.934 72.6482L94.3842 77.8863M-114.155 77.8863L-93.4202 72.6482M-114.155 77.8863H-183.669M-93.4202 72.6482H-161.206M42.5806 95.3361H-32.688M42.5806 95.3361L23.3534 101.812M-32.688 95.3361H-107.957M-107.957 95.3361H-183.225M-208.861 101.812H-246.822M100.76 101.812L82.6699 108.669M-183.225 95.3361L-208.864 101.812M-183.225 95.3361H-246.822M-41.4903 123.655L-65.8721 131.868M-240.51 131.868H-246.822M-240.51 131.868L-246.822 133.608M-210.711 123.655H-246.821M-246.821 123.655V131.868V133.606V140.624V149.981V159.998V160.252V170.753V182.327V192.819V194.819V208.341V223.028V233.528V239.037V256.554V275.801V285.868V297.052M-246.821 123.655V115.936V111.402M-149.384 159.998L-181.312 170.753M-181.312 170.753L-215.673 182.327M-181.312 170.753H-246.822M-215.673 182.327H-246.822M-215.673 182.327L-246.822 192.819M89.5347 14.176L78.1188 16.8381M121.467 6.72905L122.727 6.43461L131.404 4.41119M121.467 6.72905H167.508M167.508 6.72905L168.671 6.43461L176.68 4.41119M131.404 4.41119H176.68M-70.0077 16.8381L-55.958 14.176M-70.0077 16.8381H-119.383M-55.958 14.176H-104.456M41.2509 25.4346L28.0025 28.5255M68.5166 31.7375L55.2831 35.0812M-131.689 28.5242L-115.383 25.4346M-131.689 28.5242L-184.921 28.5255M-115.383 25.4346L-99.6895 22.462M-115.383 25.4346H-167.594M55.2831 35.0812L41.501 38.5633M-15.0406 38.562H-71.5821H-128.125M-15.0406 38.562L-30.6028 42.192M-128.125 38.562H-184.664L-203.82 42.192M12.1486 45.978L-3.50101 49.9308M-203.82 42.192H-246.822M-81.5136 54.0637L-63.7923 49.9321L-3.50101 49.9308M-81.5136 54.0637L-100.054 58.3875M-246.822 54.0637V50.3395M-161.206 72.6482L-183.669 77.8863M-183.669 77.8863L-207.305 83.3986M-183.669 77.8863H-246.822M-207.305 83.3986L-232.212 89.2067M-207.305 83.3986H-246.824M-232.212 89.2067H-158.966M-232.212 89.2067H-246.822M-232.212 89.2067L-246.822 92.6135M-246.821 108.669H-235.998L-246.821 111.402M-246.821 111.402V108.668V101.812V95.3361V92.6135V89.2067V83.3986V77.8863V76.5095V72.6482V67.6643M-152.952 14.176H-104.456M-152.952 14.176H-201.451M-104.456 14.176L-119.383 16.8381M-201.451 14.176H-246.822M-62.6978 6.72905H-16.6566M-62.6978 6.72905L-49.7022 4.41119M-16.6566 6.72905L-4.42601 4.41119M-49.7022 4.41119H-4.42601M-246.822 16.8381V14.176M-246.822 14.176V13.7015V11.6068V9.12624M-167.594 25.4346L-184.921 28.5255M-238.151 28.5255H-184.921M-238.151 28.5255L-246.822 29.9856M-238.151 28.5255L-246.822 28.5242M-246.822 25.4346V28.5242M-184.921 28.5255L-202.935 31.7388M-202.935 31.7388L-221.682 35.0812M-202.935 31.7388L-246.822 31.7375M-221.682 35.0812L-241.208 38.5633M-221.682 35.0812H-246.822M-246.822 31.7375V35.0798V38.562M-246.822 31.7375V29.9856M-246.822 29.9856V28.5242M-241.208 38.5633L-246.821 39.5636M-241.207 38.562H-246.822M-246.822 38.562V39.5636V42.192M-246.822 45.978V49.9308M-246.822 45.978V42.192M-246.822 42.192H-247.124M-246.822 49.9308V50.3395M-246.822 50.3395L-247.343 50.4376M-246.821 11.6068H-233L-246.821 13.7001M-200.822 6.72905L-185.534 4.41119M-200.822 6.72905H-246.822M-246.822 9.12624V6.72905M-246.822 6.72905H-246.861L-246.821 6.72367M1263.33 4.40985H1218.04M-185.532 4.40985L-230.809 4.41119M-230.809 4.41119L-246.821 6.72367M-230.809 4.41119H-246.821M-246.821 6.72367V6.72771M-246.821 6.72367V4.41119M1686.82 6.72367V4.41119" stroke="url(#paint0_radial_9575_36360)" stroke-opacity="0.4" stroke-width="1.34447" stroke-miterlimit="10" stroke-linecap="round" stroke-linejoin="round"/>
</g>
</g>
</g>
<defs>
<radialGradient id="paint0_radial_9575_36360" cx="0" cy="0" r="1" gradientUnits="userSpaceOnUse" gradientTransform="translate(720 298.769) rotate(-90) scale(477.706 1497.56)">
<stop stop-color="#B0D3ED"/>
<stop offset="0.742" stop-color="#B0D3ED" stop-opacity="0"/>
</radialGradient>
<clipPath id="clip0_9575_36360">
<rect width="1920" height="297.127" fill="white" transform="translate(-240)"/>
</clipPath>
<clipPath id="clip1_9575_36360">
<rect width="1920" height="297.127" fill="white" transform="translate(-240)"/>
</clipPath>
<clipPath id="clip2_9575_36360">
<rect width="1934.69" height="297.127" fill="white" transform="translate(-247.343)"/>
</clipPath>
</defs>
</svg>
