<svg width="270" height="320" viewBox="0 0 270 320" fill="none" xmlns="http://www.w3.org/2000/svg">
<rect x="0.5" y="38.7324" width="41.6667" height="41.6667" rx="4.5977" stroke="#F0F0F0" stroke-width="0.431035"/>
<rect x="42.167" y="38.7324" width="41.6667" height="41.6667" rx="4.5977" stroke="#F0F0F0" stroke-width="0.431035"/>
<rect x="83.833" y="38.7324" width="41.6667" height="41.6667" rx="4.5977" stroke="#F0F0F0" stroke-width="0.431035"/>
<rect x="125.5" y="38.7324" width="41.6667" height="41.6667" rx="4.5977" stroke="#F0F0F0" stroke-width="0.431035"/>
<rect x="167.167" y="38.7324" width="41.6667" height="41.6667" rx="4.5977" stroke="#F0F0F0" stroke-width="0.431035"/>
<rect x="208.833" y="38.7324" width="41.6667" height="41.6667" rx="4.5977" stroke="#F0F0F0" stroke-width="0.431035"/>
<rect x="0.5" y="80.3989" width="41.6667" height="41.6667" rx="4.5977" stroke="#F0F0F0" stroke-width="0.431035"/>
<rect x="42.167" y="80.3989" width="41.6667" height="41.6667" rx="4.5977" stroke="#F0F0F0" stroke-width="0.431035"/>
<rect x="83.833" y="80.3989" width="41.6667" height="41.6667" rx="4.5977" stroke="#F0F0F0" stroke-width="0.431035"/>
<rect x="125.5" y="80.3989" width="41.6667" height="41.6667" rx="4.5977" stroke="#F0F0F0" stroke-width="0.431035"/>
<rect x="167.167" y="80.3989" width="41.6667" height="41.6667" rx="4.5977" stroke="#F0F0F0" stroke-width="0.431035"/>
<rect x="208.833" y="80.3989" width="41.6667" height="41.6667" rx="4.5977" stroke="#F0F0F0" stroke-width="0.431035"/>
<rect x="0.5" y="122.065" width="41.6667" height="41.6667" rx="4.5977" stroke="#F0F0F0" stroke-width="0.431035"/>
<rect x="42.167" y="122.065" width="41.6667" height="41.6667" rx="4.5977" stroke="#F0F0F0" stroke-width="0.431035"/>
<rect x="83.833" y="122.065" width="41.6667" height="41.6667" rx="4.5977" stroke="#F0F0F0" stroke-width="0.431035"/>
<rect x="125.5" y="122.065" width="41.6667" height="41.6667" rx="4.5977" stroke="#F0F0F0" stroke-width="0.431035"/>
<rect x="167.167" y="122.065" width="41.6667" height="41.6667" rx="4.5977" stroke="#F0F0F0" stroke-width="0.431035"/>
<rect x="208.833" y="122.065" width="41.6667" height="41.6667" rx="4.5977" stroke="#F0F0F0" stroke-width="0.431035"/>
<rect x="0.5" y="163.732" width="41.6667" height="41.6667" rx="4.5977" stroke="#F0F0F0" stroke-width="0.431035"/>
<rect x="42.167" y="163.732" width="41.6667" height="41.6667" rx="4.5977" stroke="#F0F0F0" stroke-width="0.431035"/>
<rect x="83.833" y="163.732" width="41.6667" height="41.6667" rx="4.5977" stroke="#F0F0F0" stroke-width="0.431035"/>
<rect x="125.5" y="163.732" width="41.6667" height="41.6667" rx="4.5977" stroke="#F0F0F0" stroke-width="0.431035"/>
<rect x="167.167" y="163.732" width="41.6667" height="41.6667" rx="4.5977" stroke="#F0F0F0" stroke-width="0.431035"/>
<rect x="208.833" y="163.732" width="41.6667" height="41.6667" rx="4.5977" stroke="#F0F0F0" stroke-width="0.431035"/>
<rect x="0.5" y="205.399" width="41.6667" height="41.6667" rx="4.5977" stroke="#F0F0F0" stroke-width="0.431035"/>
<rect x="42.167" y="205.399" width="41.6667" height="41.6667" rx="4.5977" stroke="#F0F0F0" stroke-width="0.431035"/>
<rect x="83.833" y="205.399" width="41.6667" height="41.6667" rx="4.5977" stroke="#F0F0F0" stroke-width="0.431035"/>
<rect x="125.5" y="205.399" width="41.6667" height="41.6667" rx="4.5977" stroke="#F0F0F0" stroke-width="0.431035"/>
<rect x="167.167" y="205.399" width="41.6667" height="41.6667" rx="4.5977" stroke="#F0F0F0" stroke-width="0.431035"/>
<rect x="208.833" y="205.399" width="41.6667" height="41.6667" rx="4.5977" stroke="#F0F0F0" stroke-width="0.431035"/>
<rect x="0.5" y="247.065" width="41.6667" height="41.6667" rx="4.5977" stroke="#F0F0F0" stroke-width="0.431035"/>
<rect x="42.167" y="247.065" width="41.6667" height="41.6667" rx="4.5977" stroke="#F0F0F0" stroke-width="0.431035"/>
<rect x="83.833" y="247.065" width="41.6667" height="41.6667" rx="4.5977" stroke="#F0F0F0" stroke-width="0.431035"/>
<rect x="125.5" y="247.065" width="41.6667" height="41.6667" rx="4.5977" stroke="#F0F0F0" stroke-width="0.431035"/>
<rect x="167.167" y="247.065" width="41.6667" height="41.6667" rx="4.5977" stroke="#F0F0F0" stroke-width="0.431035"/>
<rect x="208.833" y="247.065" width="41.6667" height="41.6667" rx="4.5977" stroke="#F0F0F0" stroke-width="0.431035"/>
<rect x="0.5" y="288.732" width="41.6667" height="41.6667" rx="4.5977" stroke="#F0F0F0" stroke-width="0.431035"/>
<rect x="42.167" y="288.732" width="41.6667" height="41.6667" rx="4.5977" stroke="#F0F0F0" stroke-width="0.431035"/>
<rect x="83.833" y="288.732" width="41.6667" height="41.6667" rx="4.5977" stroke="#F0F0F0" stroke-width="0.431035"/>
<rect x="125.5" y="288.732" width="41.6667" height="41.6667" rx="4.5977" stroke="#F0F0F0" stroke-width="0.431035"/>
<rect x="167.167" y="288.732" width="41.6667" height="41.6667" rx="4.5977" stroke="#F0F0F0" stroke-width="0.431035"/>
<rect x="208.833" y="288.732" width="41.6667" height="41.6667" rx="4.5977" stroke="#F0F0F0" stroke-width="0.431035"/>
<path d="M167.167 83.8472V117.468C167.167 120.007 169.225 122.066 171.764 122.066H204.236C206.775 122.066 208.833 124.124 208.833 126.663V159.135C208.833 161.674 210.892 163.732 213.431 163.732H245.902C248.442 163.732 250.5 165.791 250.5 168.33V200.801C250.5 203.34 252.558 205.399 255.098 205.399H287.569C290.108 205.399 292.167 207.457 292.167 209.997V242.468C292.167 245.007 294.225 247.066 296.764 247.066H330.385M125.5 83.8472V117.468C125.5 120.007 127.558 122.066 130.098 122.066H162.569C165.108 122.066 167.167 124.124 167.167 126.663V159.135C167.167 161.674 169.225 163.732 171.764 163.732H204.236C206.775 163.732 208.833 165.791 208.833 168.33V200.801C208.833 203.34 206.775 205.399 204.236 205.399H171.764C169.225 205.399 167.167 203.34 167.167 200.801V167.755L167.126 167.484C166.818 165.401 165.05 163.846 162.946 163.806L159.121 163.732H130.098C127.558 163.732 125.5 165.791 125.5 168.33V200.801C125.5 203.34 127.558 205.399 130.098 205.399H162.856L163.948 205.472C165.759 205.592 167.167 207.097 167.167 208.912V212.439M167.167 208.847V242.468C167.167 245.007 169.225 247.066 171.764 247.066H204.236C206.775 247.066 208.833 249.124 208.833 251.663V284.135C208.833 286.674 210.892 288.732 213.431 288.732H245.902C248.442 288.732 250.5 290.791 250.5 293.33V325.801C250.5 328.34 252.558 330.399 255.098 330.399H287.569C290.108 330.399 292.167 332.457 292.167 334.997V367.468C292.167 370.007 294.225 372.066 296.764 372.066H330.385" stroke="url(#paint0_linear_10398_7447)" stroke-opacity="0.8" stroke-width="0.431035"/>
<rect x="0.5" y="341.353" width="233.621" height="125" transform="rotate(-90 0.5 341.353)" fill="url(#paint1_linear_10398_7447)"/>
<rect x="234.121" y="372.1" width="233.621" height="125" transform="rotate(-180 234.121 372.1)" fill="url(#paint2_linear_10398_7447)"/>
<ellipse cx="163.719" cy="79.5714" rx="155.46" ry="132.471" fill="url(#paint3_radial_10398_7447)"/>
<defs>
<linearGradient id="paint0_linear_10398_7447" x1="125.5" y1="83.8472" x2="325.787" y2="331.692" gradientUnits="userSpaceOnUse">
<stop offset="0.0819437" stop-color="#F7F7F7"/>
<stop offset="0.208333" stop-color="#12C2E9"/>
<stop offset="0.526042" stop-color="#C471ED"/>
<stop offset="0.9375" stop-color="#F64F59"/>
</linearGradient>
<linearGradient id="paint1_linear_10398_7447" x1="117.31" y1="341.353" x2="117.31" y2="466.353" gradientUnits="userSpaceOnUse">
<stop stop-color="white"/>
<stop offset="1" stop-color="white" stop-opacity="0"/>
</linearGradient>
<linearGradient id="paint2_linear_10398_7447" x1="350.931" y1="372.1" x2="350.931" y2="497.1" gradientUnits="userSpaceOnUse">
<stop stop-color="white"/>
<stop offset="0.713542" stop-color="white" stop-opacity="0.7"/>
<stop offset="1" stop-color="white" stop-opacity="0"/>
</linearGradient>
<radialGradient id="paint3_radial_10398_7447" cx="0" cy="0" r="1" gradientUnits="userSpaceOnUse" gradientTransform="translate(163.719 79.5714) rotate(90) scale(132.471 155.46)">
<stop stop-color="white"/>
<stop offset="1" stop-color="white" stop-opacity="0"/>
</radialGradient>
</defs>
</svg>
